<svg xmlns="http://www.w3.org/2000/svg" viewBox="0 0 300 300" width="300" height="300">
    <g>
    <defs>
        <linearGradient x1="0" y1="0" x2="0" y2="1" id="background127" gradientTransform="rotate(0 .5 .5)">
            <stop offset="0" stop-color="transparent" stop-opacity="1"/>
        </linearGradient>
        
    </defs>
    <rect x="0" y="0" width="100%" height="100%" fill="url(#background127)"/>
</g>
    <g transform="matrix(2.5 0 0 2.5 -75 7.499995231628418)">
        <g transform="matrix(1 0 0 1 0 0)">
            <g>
                <g is="lm-picture">
    <defs><!-- we have to use this <defs> so that Vue know this is SVG -->
    <filter x="-50%" y="-50%" width="200%" height="200%" id="filter122">

        
        
        

        
        
        
        
        
        
        

        <feMerge>
            
            <feMergeNode in="SourceGraphic"/>
            
        </feMerge>

    </filter>
</defs>
    <g filter="url(#filter122)" transform="matrix(0.96 0 0 0.96 42 25.44)">
        <g transform="matrix(1 0 0 1 0 0)">
    <defs>
    <linearGradient x1="0" y1="0" x2="0" y2="1" id="gradient123" gradientTransform="rotate(-180 .5 .5)">
        <stop offset="0" stop-color="#420073" stop-opacity="1"/><stop offset="1" stop-color="#AE8BFF" stop-opacity="1"/>
    </linearGradient>
    
</defs>
    <path fill="url(#gradient123)" d="M93.1 17.95Q89.85 14.65 85.6 12.85 81.2 11 76.4 11 71.3 11 66.65 13.1 62.7 7.25 56.45 3.9 50.05 0.45 42.75 0.45 38.2 0.45 34.25 1.55 30 2.75 26.9 5.15 21.9 9 22.5 16 23.15 23.3 29.9 31.65 37.35 40.85 50.7 49.2 65.7 58.6 86.45 65.75 81 62.2 78.95 60.8 75.6 58.5 76.4 58.5 81.2 58.5 85.6 56.65 89.85 54.8 93.1 51.5 96.35 48.2 98.15 43.95 100 39.55 100 34.75 100 29.95 98.15 25.55 96.35 21.25 93.1 17.95Z"/>
</g><g transform="matrix(1 0 0 1 0 0)">
    <defs>
    <linearGradient x1="0" y1="0" x2="0" y2="1" id="gradient124" gradientTransform="rotate(-180 .5 .5)">
        <stop offset="0" stop-color="#FF6E00" stop-opacity="1"/><stop offset="1" stop-color="#FFB115" stop-opacity="1"/>
    </linearGradient>
    
</defs>
    <path fill="url(#gradient124)" d="M4.1 30.8Q0 35.5 0 41.7 0 48.5 4.85 53.35 9.7 58.15 16.5 58.15 45.7 58.35 62.6 58.45 38.8 53.75 24.1 39.1 19.5 34.5 16.35 29.45 15.4 27.9 14.65 26.45L14.15 25.35Q8.1 26.2 4.1 30.8Z"/>
</g><g transform="matrix(1 0 0 1 0 0)">
    <defs>
    <linearGradient x1="0" y1="0" x2="0" y2="1" id="gradient125" gradientTransform="rotate(-180 .5 .5)">
        <stop offset="0" stop-color="#000000" stop-opacity="1"/><stop offset="1" stop-color="#420073" stop-opacity="1"/>
    </linearGradient>
    
</defs>
    <path fill="url(#gradient125)" d="M12.35 4.3Q10.5 8 12.45 13.55 14.7 20.05 21.9 27.8 17.85 22.45 16.25 17.2 14.85 12.5 15.6 8.7 16.35 5.15 18.7 3.45 21 1.75 24.1 2.6 21.2 0 17.65 0.5 14 1.05 12.35 4.3Z"/>
</g><g transform="matrix(1 0 0 1 0 0)">
    <defs>
    <linearGradient x1="0" y1="0" x2="0" y2="1" id="gradient126" gradientTransform="rotate(-180 .5 .5)">
        <stop offset="0" stop-color="#FFFFFF" stop-opacity="1"/><stop offset="1" stop-color="#FFFFFF" stop-opacity="1"/>
    </linearGradient>
    
</defs>
    <path fill="url(#gradient126)" d="M96.05 29.8Q93.9 24.15 89.35 20.4 85.2 16.9 80.1 15.8 75.05 14.7 70.85 16.3 66.4 18 64.35 22.2 72.6 17.45 81.5 19.75 90.1 21.9 96.05 29.8Z"/>
</g>
    </g>
</g>
            </g>
        </g>
    </g>
    
    
</svg>
