<svg xmlns="http://www.w3.org/2000/svg" viewBox="0 0 300 300" width="300" height="300">
    <g>
    <defs>
        <linearGradient x1="0" y1="0" x2="0" y2="1" id="background141" gradientTransform="rotate(0 .5 .5)">
            <stop offset="0" stop-color="#ffffff" stop-opacity="1"/>
        </linearGradient>
        
    </defs>
    <rect x="0" y="0" width="100%" height="100%" fill="url(#background141)"/>
</g>
    <g transform="matrix(2.225704539556298 0 0 2.225704539556298 -52.57203882824709 -26.621924674966692)">
        <g transform="matrix(1 0 0 1 0 0)">
            <g>
                <g is="lm-picture">
    <defs><!-- we have to use this <defs> so that Vue know this is SVG -->
    <filter x="-50%" y="-50%" width="200%" height="200%" id="filter132">

        
        
        

        
        
        
        
        
        
        

        <feMerge>
            
            <feMergeNode in="SourceGraphic"/>
            
        </feMerge>

    </filter>
</defs>
    <g filter="url(#filter132)" transform="matrix(0.96 0 0 0.96 42 25.44)">
        <g transform="matrix(1 0 0 1 0 0)">
    <defs>
    <linearGradient x1="0" y1="0" x2="0" y2="1" id="gradient133" gradientTransform="rotate(-180 .5 .5)">
        <stop offset="0" stop-color="#420073" stop-opacity="1"/><stop offset="1" stop-color="#AE8BFF" stop-opacity="1"/>
    </linearGradient>
    
</defs>
    <path fill="url(#gradient133)" d="M93.1 17.95Q89.85 14.65 85.6 12.85 81.2 11 76.4 11 71.3 11 66.65 13.1 62.7 7.25 56.45 3.9 50.05 0.45 42.75 0.45 38.2 0.45 34.25 1.55 30 2.75 26.9 5.15 21.9 9 22.5 16 23.15 23.3 29.9 31.65 37.35 40.85 50.7 49.2 65.7 58.6 86.45 65.75 81 62.2 78.95 60.8 75.6 58.5 76.4 58.5 81.2 58.5 85.6 56.65 89.85 54.8 93.1 51.5 96.35 48.2 98.15 43.95 100 39.55 100 34.75 100 29.95 98.15 25.55 96.35 21.25 93.1 17.95Z"/>
</g><g transform="matrix(1 0 0 1 0 0)">
    <defs>
    <linearGradient x1="0" y1="0" x2="0" y2="1" id="gradient134" gradientTransform="rotate(-180 .5 .5)">
        <stop offset="0" stop-color="#FF6E00" stop-opacity="1"/><stop offset="1" stop-color="#FFB115" stop-opacity="1"/>
    </linearGradient>
    
</defs>
    <path fill="url(#gradient134)" d="M4.1 30.8Q0 35.5 0 41.7 0 48.5 4.85 53.35 9.7 58.15 16.5 58.15 45.7 58.35 62.6 58.45 38.8 53.75 24.1 39.1 19.5 34.5 16.35 29.45 15.4 27.9 14.65 26.45L14.15 25.35Q8.1 26.2 4.1 30.8Z"/>
</g><g transform="matrix(1 0 0 1 0 0)">
    <defs>
    <linearGradient x1="0" y1="0" x2="0" y2="1" id="gradient135" gradientTransform="rotate(-180 .5 .5)">
        <stop offset="0" stop-color="#000000" stop-opacity="1"/><stop offset="1" stop-color="#420073" stop-opacity="1"/>
    </linearGradient>
    
</defs>
    <path fill="url(#gradient135)" d="M12.35 4.3Q10.5 8 12.45 13.55 14.7 20.05 21.9 27.8 17.85 22.45 16.25 17.2 14.85 12.5 15.6 8.7 16.35 5.15 18.7 3.45 21 1.75 24.1 2.6 21.2 0 17.65 0.5 14 1.05 12.35 4.3Z"/>
</g><g transform="matrix(1 0 0 1 0 0)">
    <defs>
    <linearGradient x1="0" y1="0" x2="0" y2="1" id="gradient136" gradientTransform="rotate(-180 .5 .5)">
        <stop offset="0" stop-color="#FFFFFF" stop-opacity="1"/><stop offset="1" stop-color="#FFFFFF" stop-opacity="1"/>
    </linearGradient>
    
</defs>
    <path fill="url(#gradient136)" d="M96.05 29.8Q93.9 24.15 89.35 20.4 85.2 16.9 80.1 15.8 75.05 14.7 70.85 16.3 66.4 18 64.35 22.2 72.6 17.45 81.5 19.75 90.1 21.9 96.05 29.8Z"/>
</g>
    </g>
</g><g is="lm-text" transform="matrix(1.6211915252683915 0 0 1.6211913392009842 21.68260567368417 105.32285751243462)">
    <defs>
    <linearGradient x1="0" y1="0" x2="0" y2="1" id="gradient138" gradientTransform="rotate(0 .5 .5)">
        <stop offset="0" stop-color="#000000" stop-opacity="1"/>
    </linearGradient>
    
</defs>
    <defs><!-- we have to use this <defs> so that Vue know this is SVG -->
    <filter x="-50%" y="-50%" width="200%" height="200%" id="fx137">

        
        
        

        <feFlood in="SourceGraphic" flood-color="#000000"/>
        <feComposite operator="xor" in2="SourceGraphic"/>
        <feGaussianBlur stdDeviation="1"/>
        <feOffset dx="6.123233995736766e-17" dy="1"/>
        <feComponentTransfer>
            <feFuncA type="linear" slope="0.7"/>
        </feComponentTransfer>
        <feComposite operator="in" in2="SourceGraphic"/>
        <feComposite operator="over" in2="SourceGraphic" result="inner"/>

        <feMerge>
            
            <feMergeNode in="SourceGraphic"/>
            <feMergeNode in="inner"/>
        </feMerge>

    </filter>
</defs>
    <path filter="url(#fx137)" fill="url(#gradient138)" d="M19.722222222222207,-5.44444444444445C19.6111111111111,-5.166666666666673,19.444444444444432,-4.777777777777784,19.277777777777764,-4.333333333333339C19.055555555555543,-3.6666666666666723,19.055555555555543,-3.611111111111117,18.777777777777764,-2.8333333333333393C18.499999999999986,-2.0555555555555616,18.499999999999986,-2.0555555555555616,18.166666666666654,-1.2222222222222285C17.83333333333332,-0.3888888888888946,17.888888888888875,-0.33333333333333925,17.555555555555543,0.4444444444444384C17.555555555555543,0.4444444444444384,20.166666666666654,0.4444444444444384,20.166666666666654,0.4444444444444384C20.166666666666654,0.4444444444444384,19.999999999999986,-1.2222222222222285,19.999999999999986,-1.2222222222222285C19.999999999999986,-1.2222222222222285,19.944444444444432,-2.3333333333333393,19.888888888888875,-2.8333333333333393C19.83333333333332,-3.3333333333333393,19.83333333333332,-3.8888888888888946,19.777777777777764,-4.333333333333339C19.722222222222207,-4.777777777777784,19.722222222222207,-5.166666666666673,19.722222222222207,-5.44444444444445C19.722222222222207,-5.44444444444445,19.722222222222207,-5.44444444444445,19.722222222222207,-5.44444444444445M18.555555555555543,-7.833333333333339C18.555555555555543,-7.833333333333339,21.666666666666654,-7.833333333333339,21.666666666666654,-7.833333333333339C21.666666666666654,-7.833333333333339,23.222222222222207,4.2777777777777715,23.222222222222207,4.2777777777777715C23.222222222222207,4.2777777777777715,20.555555555555543,4.2777777777777715,20.555555555555543,4.2777777777777715C20.555555555555543,4.2777777777777715,20.33333333333332,2.1666666666666603,20.33333333333332,2.1666666666666603C20.33333333333332,2.1666666666666603,16.944444444444432,2.1666666666666603,16.944444444444432,2.1666666666666603C16.944444444444432,2.1666666666666603,16.055555555555543,4.2777777777777715,16.055555555555543,4.2777777777777715C16.055555555555543,4.2777777777777715,13.499999999999988,4.2777777777777715,13.499999999999988,4.2777777777777715C13.499999999999988,4.2777777777777715,18.555555555555543,-7.833333333333339,18.555555555555543,-7.833333333333339M28.1111111111111,-2.2222222222222285C28.1111111111111,-2.2222222222222285,27.444444444444436,2.499999999999994,27.444444444444436,2.499999999999994C27.722222222222214,2.6666666666666607,28.1111111111111,2.722222222222216,28.49999999999999,2.722222222222216C29.1111111111111,2.722222222222216,29.6111111111111,2.4444444444444384,29.99999999999999,1.9999999999999938C30.38888888888888,1.5555555555555496,30.6111111111111,0.7777777777777715,30.777777777777768,-0.33333333333333925C30.944444444444436,-1.4444444444444509,30.88888888888888,-2.1666666666666723,30.722222222222214,-2.611111111111117C30.555555555555546,-3.0555555555555616,30.166666666666657,-3.277777777777784,29.666666666666657,-3.277777777777784C29.166666666666657,-3.277777777777784,28.6111111111111,-2.8888888888888946,28.1111111111111,-2.2222222222222285C28.1111111111111,-2.2222222222222285,28.1111111111111,-2.2222222222222285,28.1111111111111,-2.2222222222222285M26.055555555555546,-5.166666666666673C26.055555555555546,-5.166666666666673,28.33333333333332,-5.166666666666673,28.33333333333332,-5.166666666666673C28.33333333333332,-5.166666666666673,28.277777777777768,-3.94444444444445,28.277777777777768,-3.94444444444445C28.277777777777768,-3.94444444444445,28.33333333333332,-3.94444444444445,28.33333333333332,-3.94444444444445C28.555555555555546,-4.166666666666673,28.83333333333332,-4.44444444444445,29.166666666666657,-4.666666666666673C29.83333333333332,-5.111111111111116,30.38888888888888,-5.388888888888895,30.88888888888888,-5.388888888888895C31.38888888888888,-5.388888888888895,31.83333333333332,-5.277777777777784,32.16666666666666,-5.055555555555561C32.499999999999986,-4.833333333333339,32.77777777777777,-4.611111111111118,32.999999999999986,-4.2222222222222285C33.444444444444436,-3.3333333333333393,33.6111111111111,-2.111111111111117,33.38888888888888,-0.5555555555555616C33.16666666666666,1.111111111111105,32.6111111111111,2.3888888888888826,31.777777777777768,3.2777777777777715C31.055555555555546,4.1111111111111045,30.1111111111111,4.499999999999994,28.99999999999999,4.499999999999994C28.33333333333332,4.499999999999994,27.777777777777768,4.388888888888882,27.222222222222214,4.166666666666661C27.222222222222214,4.166666666666661,26.555555555555546,8.444444444444438,26.555555555555546,8.444444444444438C26.555555555555546,8.444444444444438,24.1111111111111,8.444444444444438,24.1111111111111,8.444444444444438C24.1111111111111,8.444444444444438,26.055555555555546,-5.166666666666673,26.055555555555546,-5.166666666666673M38.16666666666664,-2.2222222222222285C38.16666666666664,-2.2222222222222285,37.49999999999998,2.499999999999994,37.49999999999998,2.499999999999994C37.77777777777776,2.6666666666666607,38.16666666666664,2.722222222222216,38.555555555555536,2.722222222222216C39.16666666666664,2.722222222222216,39.66666666666664,2.4444444444444384,40.055555555555536,1.9999999999999938C40.44444444444442,1.5555555555555496,40.66666666666664,0.7777777777777715,40.833333333333314,-0.33333333333333925C40.99999999999998,-1.4444444444444509,40.94444444444442,-2.1666666666666723,40.77777777777776,-2.611111111111117C40.611111111111086,-3.0555555555555616,40.2222222222222,-3.277777777777784,39.7222222222222,-3.277777777777784C39.2222222222222,-3.277777777777784,38.66666666666664,-2.8888888888888946,38.16666666666664,-2.2222222222222285C38.16666666666664,-2.2222222222222285,38.16666666666664,-2.2222222222222285,38.16666666666664,-2.2222222222222285M36.111111111111086,-5.166666666666673C36.111111111111086,-5.166666666666673,38.388888888888864,-5.166666666666673,38.388888888888864,-5.166666666666673C38.388888888888864,-5.166666666666673,38.333333333333314,-3.94444444444445,38.333333333333314,-3.94444444444445C38.333333333333314,-3.94444444444445,38.388888888888864,-3.94444444444445,38.388888888888864,-3.94444444444445C38.611111111111086,-4.166666666666673,38.888888888888864,-4.44444444444445,39.2222222222222,-4.666666666666673C39.888888888888864,-5.111111111111116,40.44444444444442,-5.388888888888895,40.94444444444442,-5.388888888888895C41.44444444444442,-5.388888888888895,41.888888888888864,-5.277777777777784,42.2222222222222,-5.055555555555561C42.55555555555553,-4.833333333333339,42.833333333333314,-4.611111111111118,43.05555555555553,-4.2222222222222285C43.49999999999998,-3.3333333333333393,43.66666666666664,-2.111111111111117,43.44444444444442,-0.5555555555555616C43.2222222222222,1.111111111111105,42.66666666666664,2.3888888888888826,41.833333333333314,3.2777777777777715C41.111111111111086,4.1111111111111045,40.16666666666664,4.499999999999994,39.055555555555536,4.499999999999994C38.388888888888864,4.499999999999994,37.833333333333314,4.388888888888882,37.27777777777776,4.166666666666661C37.27777777777776,4.166666666666661,36.611111111111086,8.444444444444438,36.611111111111086,8.444444444444438C36.611111111111086,8.444444444444438,34.16666666666664,8.444444444444438,34.16666666666664,8.444444444444438C34.16666666666664,8.444444444444438,36.111111111111086,-5.166666666666673,36.111111111111086,-5.166666666666673M52.6111111111111,4.2777777777777715C52.6111111111111,4.2777777777777715,50.05555555555555,4.2777777777777715,50.05555555555555,4.2777777777777715C50.05555555555555,4.2777777777777715,50.77777777777777,-0.7222222222222285,50.77777777777777,-0.7222222222222285C50.77777777777777,-0.7222222222222285,47.49999999999999,-0.7222222222222285,47.49999999999999,-0.7222222222222285C47.49999999999999,-0.7222222222222285,46.77777777777777,4.2777777777777715,46.77777777777777,4.2777777777777715C46.77777777777777,4.2777777777777715,44.222222222222214,4.2777777777777715,44.222222222222214,4.2777777777777715C44.222222222222214,4.2777777777777715,45.944444444444436,-7.833333333333339,45.944444444444436,-7.833333333333339C45.944444444444436,-7.833333333333339,48.49999999999999,-7.833333333333339,48.49999999999999,-7.833333333333339C48.49999999999999,-7.833333333333339,47.77777777777777,-2.7222222222222285,47.77777777777777,-2.7222222222222285C47.77777777777777,-2.7222222222222285,51.05555555555555,-2.7222222222222285,51.05555555555555,-2.7222222222222285C51.05555555555555,-2.7222222222222285,51.77777777777777,-7.833333333333339,51.77777777777777,-7.833333333333339C51.77777777777777,-7.833333333333339,54.33333333333333,-7.833333333333339,54.33333333333333,-7.833333333333339C54.33333333333333,-7.833333333333339,52.6111111111111,4.2777777777777715,52.6111111111111,4.2777777777777715M62.22222222222221,4.2777777777777715C62.22222222222221,4.2777777777777715,60.05555555555554,4.2777777777777715,60.05555555555554,4.2777777777777715C60.05555555555554,4.2777777777777715,60.11111111111109,2.999999999999994,60.11111111111109,2.999999999999994C60.11111111111109,2.999999999999994,59.499999999999986,3.4444444444444384,59.499999999999986,3.4444444444444384C59.22222222222221,3.833333333333327,58.66666666666665,4.166666666666661,57.94444444444443,4.388888888888882C57.66666666666665,4.499999999999994,57.38888888888887,4.499999999999994,57.11111111111109,4.499999999999994C56.22222222222221,4.499999999999994,55.61111111111109,4.2777777777777715,55.333333333333314,3.722222222222216C55.05555555555554,3.1666666666666603,54.94444444444443,2.333333333333327,55.11111111111109,1.222222222222216C55.11111111111109,1.222222222222216,55.999999999999986,-5.166666666666673,55.999999999999986,-5.166666666666673C55.999999999999986,-5.166666666666673,58.499999999999986,-5.166666666666673,58.499999999999986,-5.166666666666673C58.499999999999986,-5.166666666666673,57.777777777777764,-6.217248937900877e-15,57.777777777777764,-6.217248937900877e-15C57.61111111111109,0.9444444444444384,57.61111111111109,1.4999999999999938,57.66666666666665,1.722222222222216C57.72222222222221,1.9444444444444384,57.777777777777764,2.1666666666666603,57.88888888888887,2.222222222222216C57.999999999999986,2.2777777777777715,58.16666666666665,2.333333333333327,58.38888888888887,2.333333333333327C58.61111111111109,2.333333333333327,58.777777777777764,2.2777777777777715,58.94444444444443,2.222222222222216C59.11111111111109,2.1666666666666603,59.277777777777764,2.055555555555549,59.44444444444443,1.9444444444444384C59.777777777777764,1.6666666666666603,59.999999999999986,1.4444444444444384,60.16666666666665,1.2777777777777715C60.16666666666665,1.2777777777777715,61.05555555555554,-5.166666666666673,61.05555555555554,-5.166666666666673C61.05555555555554,-5.166666666666673,63.55555555555554,-5.166666666666673,63.55555555555554,-5.166666666666673C63.55555555555554,-5.166666666666673,62.22222222222221,4.2777777777777715,62.22222222222221,4.2777777777777715M67.77777777777777,-2.6666666666666723C67.66666666666666,-2.5555555555555616,67.6111111111111,-2.44444444444445,67.55555555555554,-2.3888888888888946C67.55555555555554,-2.3888888888888946,66.94444444444443,1.7777777777777715,66.94444444444443,1.7777777777777715C67.1111111111111,1.9444444444444384,67.27777777777777,2.055555555555549,67.44444444444443,2.1666666666666603C67.6111111111111,2.2777777777777715,67.77777777777777,2.333333333333327,67.99999999999999,2.333333333333327C68.6111111111111,2.333333333333327,69.1111111111111,2.1666666666666603,69.44444444444443,1.722222222222216C69.77777777777777,1.2777777777777715,69.99999999999999,0.5555555555555496,70.16666666666666,-0.3888888888888946C70.33333333333333,-1.5000000000000062,70.27777777777777,-2.1666666666666723,70.1111111111111,-2.611111111111117C69.94444444444443,-3.0555555555555616,69.6111111111111,-3.277777777777784,69.16666666666666,-3.277777777777784C68.72222222222221,-3.277777777777784,68.27777777777777,-3.0555555555555616,67.77777777777777,-2.6666666666666723C67.77777777777777,-2.6666666666666723,67.77777777777777,-2.6666666666666723,67.77777777777777,-2.6666666666666723M65.94444444444443,-8.94444444444445C65.94444444444443,-8.94444444444445,68.49999999999999,-9.277777777777784,68.49999999999999,-9.277777777777784C68.49999999999999,-9.277777777777784,67.77777777777777,-4.111111111111118,67.77777777777777,-4.111111111111118C67.77777777777777,-4.111111111111118,68.27777777777777,-4.500000000000005,68.27777777777777,-4.500000000000005C68.44444444444443,-4.666666666666673,68.66666666666666,-4.777777777777784,68.88888888888889,-4.888888888888895C69.38888888888889,-5.2222222222222285,69.88888888888889,-5.388888888888895,70.33333333333333,-5.388888888888895C70.77777777777777,-5.388888888888895,71.22222222222221,-5.277777777777784,71.55555555555554,-5.111111111111116C71.88888888888889,-4.94444444444445,72.16666666666666,-4.611111111111118,72.38888888888889,-4.2222222222222285C72.88888888888889,-3.3333333333333393,72.99999999999999,-2.111111111111117,72.77777777777777,-0.5555555555555616C72.55555555555554,1.0555555555555496,71.99999999999999,2.333333333333327,71.22222222222221,3.1666666666666603C70.49999999999999,3.999999999999994,69.66666666666666,4.388888888888882,68.72222222222221,4.388888888888882C67.94444444444443,4.388888888888882,67.33333333333333,4.166666666666661,66.88888888888889,3.611111111111105C66.72222222222221,3.3888888888888826,66.66666666666666,3.333333333333327,66.55555555555554,3.1666666666666603C66.55555555555554,3.1666666666666603,66.22222222222221,4.2777777777777715,66.22222222222221,4.2777777777777715C66.22222222222221,4.2777777777777715,64.1111111111111,4.2777777777777715,64.1111111111111,4.2777777777777715C64.1111111111111,4.2777777777777715,65.94444444444443,-8.94444444444445,65.94444444444443,-8.94444444444445"/>
</g><g is="lm-text" transform="matrix(0.6118163889333316 0 0 0.6118164350114813 35.29908217788508 127.93462501048238)">
    <defs>
    <linearGradient x1="0" y1="0" x2="0" y2="1" id="gradient140" gradientTransform="rotate(0 .5 .5)">
        <stop offset="0" stop-color="#000000" stop-opacity="1"/>
    </linearGradient>
    
</defs>
    <defs><!-- we have to use this <defs> so that Vue know this is SVG -->
    <filter x="-50%" y="-50%" width="200%" height="200%" id="fx139">

        
        
        

        <feFlood in="SourceGraphic" flood-color="#000000"/>
        <feComposite operator="xor" in2="SourceGraphic"/>
        <feGaussianBlur stdDeviation="1"/>
        <feOffset dx="6.123233995736766e-17" dy="1"/>
        <feComponentTransfer>
            <feFuncA type="linear" slope="0.7"/>
        </feComponentTransfer>
        <feComposite operator="in" in2="SourceGraphic"/>
        <feComposite operator="over" in2="SourceGraphic" result="inner"/>

        <feMerge>
            
            <feMergeNode in="SourceGraphic"/>
            <feMergeNode in="inner"/>
        </feMerge>

    </filter>
</defs>
    <path filter="url(#fx139)" fill="url(#gradient140)" d="M16.6111111111111,-1.7222222222222285C16.388888888888875,-0.22222222222222854,16.444444444444432,0.7777777777777715,16.72222222222221,1.4444444444444384C17.055555555555543,2.1666666666666603,17.722222222222207,2.499999999999994,18.722222222222207,2.499999999999994C19.166666666666654,2.499999999999994,19.555555555555543,2.4444444444444384,19.944444444444432,2.333333333333327C20.33333333333332,2.222222222222216,20.6111111111111,2.111111111111105,20.83333333333332,2.055555555555549C20.83333333333332,2.055555555555549,20.83333333333332,2.999999999999994,20.83333333333332,2.999999999999994C20.83333333333332,2.999999999999994,20.83333333333332,3.6666666666666603,20.888888888888875,3.999999999999994C20.444444444444432,4.166666666666661,19.944444444444432,4.2777777777777715,19.388888888888875,4.388888888888882C18.83333333333332,4.499999999999994,18.388888888888875,4.555555555555549,17.999999999999986,4.555555555555549C16.33333333333332,4.555555555555549,15.166666666666654,4.055555555555549,14.499999999999988,2.999999999999994C13.833333333333321,1.9444444444444384,13.666666666666654,0.3888888888888826,13.944444444444432,-1.777777777777784C14.222222222222209,-3.94444444444445,14.888888888888877,-5.500000000000005,15.833333333333321,-6.500000000000005C16.777777777777764,-7.500000000000005,18.1111111111111,-8.05555555555556,19.777777777777764,-8.05555555555556C20.33333333333332,-8.05555555555556,20.83333333333332,-8.000000000000005,21.277777777777764,-7.888888888888895C21.722222222222207,-7.777777777777784,21.999999999999986,-7.666666666666673,22.166666666666654,-7.611111111111116C22.33333333333332,-7.555555555555561,22.44444444444443,-7.500000000000005,22.499999999999986,-7.500000000000005C22.499999999999986,-7.500000000000005,21.888888888888875,-5.555555555555561,21.888888888888875,-5.555555555555561C21.666666666666654,-5.611111111111116,21.388888888888875,-5.7222222222222285,21.055555555555543,-5.833333333333339C20.722222222222207,-5.94444444444445,20.33333333333332,-6.000000000000005,19.944444444444432,-6.000000000000005C18.888888888888875,-6.000000000000005,18.1111111111111,-5.666666666666673,17.6111111111111,-4.94444444444445C17.1111111111111,-4.2222222222222285,16.777777777777764,-3.1666666666666723,16.6111111111111,-1.7222222222222285C16.6111111111111,-1.7222222222222285,16.6111111111111,-1.7222222222222285,16.6111111111111,-1.7222222222222285M28.5,1.9444444444444384C28.833333333333332,1.4444444444444384,29.055555555555557,0.6666666666666607,29.22222222222222,-0.44444444444445086C29.38888888888889,-1.5555555555555616,29.333333333333332,-2.3333333333333393,29.166666666666664,-2.8333333333333393C29,-3.3333333333333393,28.61111111111111,-3.5555555555555616,28.11111111111111,-3.5555555555555616C27.61111111111111,-3.5555555555555616,27.166666666666664,-3.3333333333333393,26.88888888888889,-2.8333333333333393C26.61111111111111,-2.3333333333333393,26.38888888888889,-1.5555555555555616,26.22222222222222,-0.44444444444445086C26.055555555555557,0.6666666666666607,26.055555555555557,1.4444444444444384,26.22222222222222,1.9444444444444384C26.38888888888889,2.4444444444444384,26.77777777777778,2.722222222222216,27.27777777777778,2.722222222222216C27.77777777777778,2.722222222222216,28.166666666666664,2.4444444444444384,28.5,1.9444444444444384C28.5,1.9444444444444384,28.5,1.9444444444444384,28.5,1.9444444444444384M31.77777777777778,-2.7222222222222285C31.88888888888889,-2.111111111111117,31.88888888888889,-1.3333333333333393,31.77777777777778,-0.44444444444445086C31.666666666666664,0.4444444444444384,31.444444444444443,1.222222222222216,31.166666666666664,1.8333333333333273C30.88888888888889,2.4444444444444384,30.5,2.999999999999994,30.11111111111111,3.3888888888888826C29.333333333333332,4.166666666666661,28.333333333333332,4.499999999999994,27,4.499999999999994C25.055555555555557,4.499999999999994,23.88888888888889,3.611111111111105,23.61111111111111,1.8333333333333273C23.5,1.222222222222216,23.5,0.4444444444444384,23.666666666666668,-0.44444444444445086C23.88888888888889,-2.111111111111117,24.38888888888889,-3.3888888888888946,25.27777777777778,-4.2222222222222285C26.055555555555557,-5.000000000000005,27.11111111111111,-5.388888888888895,28.333333333333332,-5.388888888888895C30.333333333333332,-5.388888888888895,31.5,-4.500000000000005,31.77777777777778,-2.7222222222222285C31.77777777777778,-2.7222222222222285,31.77777777777778,-2.7222222222222285,31.77777777777778,-2.7222222222222285M33.83333333333332,-5.166666666666673C33.83333333333332,-5.166666666666673,36.05555555555554,-5.166666666666673,36.05555555555554,-5.166666666666673C36.05555555555554,-5.166666666666673,35.94444444444443,-3.94444444444445,35.94444444444443,-3.94444444444445C35.94444444444443,-3.94444444444445,35.999999999999986,-3.94444444444445,35.999999999999986,-3.94444444444445C36.1111111111111,-4.000000000000005,36.22222222222221,-4.111111111111118,36.38888888888888,-4.277777777777784C36.55555555555554,-4.44444444444445,36.72222222222221,-4.611111111111118,36.999999999999986,-4.777777777777784C37.66666666666666,-5.166666666666673,38.277777777777764,-5.388888888888895,38.94444444444443,-5.388888888888895C39.83333333333332,-5.388888888888895,40.44444444444443,-5.111111111111116,40.72222222222221,-4.555555555555561C40.999999999999986,-4.000000000000005,41.05555555555554,-3.2222222222222285,40.88888888888887,-2.111111111111117C40.88888888888887,-2.111111111111117,39.999999999999986,4.2777777777777715,39.999999999999986,4.2777777777777715C39.999999999999986,4.2777777777777715,37.55555555555554,4.2777777777777715,37.55555555555554,4.2777777777777715C37.55555555555554,4.2777777777777715,38.33333333333332,-1.5000000000000062,38.33333333333332,-1.5000000000000062C38.44444444444443,-2.1666666666666723,38.44444444444443,-2.611111111111117,38.33333333333332,-2.8333333333333393C38.22222222222221,-3.0555555555555616,37.999999999999986,-3.2222222222222285,37.6111111111111,-3.2222222222222285C37.277777777777764,-3.2222222222222285,36.999999999999986,-3.1666666666666723,36.72222222222221,-2.94444444444445C36.22222222222221,-2.5555555555555616,35.94444444444443,-2.277777777777784,35.88888888888888,-2.1666666666666723C35.88888888888888,-2.1666666666666723,34.999999999999986,4.2777777777777715,34.999999999999986,4.2777777777777715C34.999999999999986,4.2777777777777715,32.499999999999986,4.2777777777777715,32.499999999999986,4.2777777777777715C32.499999999999986,4.2777777777777715,33.83333333333332,-5.166666666666673,33.83333333333332,-5.166666666666673M47.444444444444436,-5.166666666666673C47.444444444444436,-5.166666666666673,47.27777777777777,-3.3333333333333393,47.27777777777777,-3.3333333333333393C47.27777777777777,-3.3333333333333393,45.222222222222214,-3.3333333333333393,45.222222222222214,-3.3333333333333393C45.222222222222214,-3.3333333333333393,44.55555555555555,1.1666666666666607,44.55555555555555,1.1666666666666607C44.49999999999999,1.5555555555555496,44.49999999999999,1.8888888888888826,44.55555555555555,2.111111111111105C44.61111111111111,2.333333333333327,44.83333333333333,2.3888888888888826,45.11111111111111,2.3888888888888826C45.388888888888886,2.3888888888888826,45.66666666666666,2.333333333333327,45.888888888888886,2.2777777777777715C46.11111111111111,2.222222222222216,46.222222222222214,2.111111111111105,46.27777777777777,2.111111111111105C46.27777777777777,2.111111111111105,46.27777777777777,3.8888888888888826,46.27777777777777,3.8888888888888826C46.222222222222214,3.8888888888888826,46.11111111111111,3.944444444444438,45.944444444444436,3.999999999999994C45.77777777777777,4.055555555555549,45.66666666666666,4.166666666666661,45.49999999999999,4.222222222222216C45.05555555555555,4.444444444444438,44.55555555555555,4.499999999999994,43.99999999999999,4.499999999999994C43.16666666666666,4.499999999999994,42.55555555555555,4.2777777777777715,42.27777777777777,3.833333333333327C41.99999999999999,3.3888888888888826,41.83333333333333,2.6666666666666607,41.99999999999999,1.5555555555555496C41.99999999999999,1.5555555555555496,42.722222222222214,-3.3333333333333393,42.722222222222214,-3.3333333333333393C42.722222222222214,-3.3333333333333393,41.722222222222214,-3.3333333333333393,41.722222222222214,-3.3333333333333393C41.722222222222214,-3.3333333333333393,41.944444444444436,-5.166666666666673,41.944444444444436,-5.166666666666673C41.944444444444436,-5.166666666666673,42.99999999999999,-5.166666666666673,42.99999999999999,-5.166666666666673C42.99999999999999,-5.166666666666673,43.27777777777777,-7.44444444444445,43.27777777777777,-7.44444444444445C43.27777777777777,-7.44444444444445,45.83333333333333,-7.833333333333339,45.83333333333333,-7.833333333333339C45.83333333333333,-7.833333333333339,45.444444444444436,-5.166666666666673,45.444444444444436,-5.166666666666673C45.444444444444436,-5.166666666666673,47.444444444444436,-5.166666666666673,47.444444444444436,-5.166666666666673C47.444444444444436,-5.166666666666673,47.444444444444436,-5.166666666666673,47.444444444444436,-5.166666666666673M52.27777777777777,-9.111111111111116C52.49999999999999,-8.83333333333334,52.55555555555554,-8.500000000000005,52.49999999999999,-8.05555555555556C52.444444444444436,-7.611111111111116,52.222222222222214,-7.277777777777784,51.944444444444436,-7.000000000000005C51.66666666666666,-6.7222222222222285,51.27777777777777,-6.555555555555561,50.88888888888888,-6.555555555555561C50.49999999999999,-6.555555555555561,50.16666666666666,-6.7222222222222285,49.944444444444436,-7.000000000000005C49.722222222222214,-7.277777777777784,49.6111111111111,-7.611111111111116,49.66666666666666,-8.05555555555556C49.77777777777777,-8.500000000000005,49.99999999999999,-8.83333333333334,50.27777777777777,-9.111111111111116C50.55555555555554,-9.388888888888895,50.944444444444436,-9.55555555555556,51.33333333333332,-9.55555555555556C51.722222222222214,-9.55555555555556,52.05555555555554,-9.388888888888895,52.27777777777777,-9.111111111111116C52.27777777777777,-9.111111111111116,52.27777777777777,-9.111111111111116,52.27777777777777,-9.111111111111116M50.6111111111111,4.2777777777777715C50.6111111111111,4.2777777777777715,48.1111111111111,4.2777777777777715,48.1111111111111,4.2777777777777715C48.1111111111111,4.2777777777777715,49.38888888888888,-5.000000000000005,49.38888888888888,-5.000000000000005C49.38888888888888,-5.000000000000005,51.944444444444436,-5.333333333333339,51.944444444444436,-5.333333333333339C51.944444444444436,-5.333333333333339,50.6111111111111,4.2777777777777715,50.6111111111111,4.2777777777777715M54.55555555555555,-5.166666666666673C54.55555555555555,-5.166666666666673,56.77777777777777,-5.166666666666673,56.77777777777777,-5.166666666666673C56.77777777777777,-5.166666666666673,56.66666666666666,-3.94444444444445,56.66666666666666,-3.94444444444445C56.66666666666666,-3.94444444444445,56.722222222222214,-3.94444444444445,56.722222222222214,-3.94444444444445C56.83333333333333,-4.000000000000005,56.944444444444436,-4.111111111111118,57.11111111111111,-4.277777777777784C57.27777777777777,-4.44444444444445,57.444444444444436,-4.611111111111118,57.722222222222214,-4.777777777777784C58.388888888888886,-5.166666666666673,58.99999999999999,-5.388888888888895,59.66666666666666,-5.388888888888895C60.55555555555555,-5.388888888888895,61.16666666666666,-5.111111111111116,61.444444444444436,-4.555555555555561C61.722222222222214,-4.000000000000005,61.77777777777777,-3.2222222222222285,61.6111111111111,-2.111111111111117C61.6111111111111,-2.111111111111117,60.722222222222214,4.2777777777777715,60.722222222222214,4.2777777777777715C60.722222222222214,4.2777777777777715,58.27777777777777,4.2777777777777715,58.27777777777777,4.2777777777777715C58.27777777777777,4.2777777777777715,59.05555555555555,-1.5000000000000062,59.05555555555555,-1.5000000000000062C59.16666666666666,-2.1666666666666723,59.16666666666666,-2.611111111111117,59.05555555555555,-2.8333333333333393C58.944444444444436,-3.0555555555555616,58.722222222222214,-3.2222222222222285,58.33333333333333,-3.2222222222222285C57.99999999999999,-3.2222222222222285,57.722222222222214,-3.1666666666666723,57.444444444444436,-2.94444444444445C56.944444444444436,-2.5555555555555616,56.66666666666666,-2.277777777777784,56.61111111111111,-2.1666666666666723C56.61111111111111,-2.1666666666666723,55.722222222222214,4.2777777777777715,55.722222222222214,4.2777777777777715C55.722222222222214,4.2777777777777715,53.222222222222214,4.2777777777777715,53.222222222222214,4.2777777777777715C53.222222222222214,4.2777777777777715,54.55555555555555,-5.166666666666673,54.55555555555555,-5.166666666666673M69.77777777777777,4.2777777777777715C69.77777777777777,4.2777777777777715,67.61111111111111,4.2777777777777715,67.61111111111111,4.2777777777777715C67.61111111111111,4.2777777777777715,67.66666666666667,2.999999999999994,67.66666666666667,2.999999999999994C67.66666666666667,2.999999999999994,67.05555555555556,3.4444444444444384,67.05555555555556,3.4444444444444384C66.77777777777777,3.833333333333327,66.22222222222223,4.166666666666661,65.5,4.388888888888882C65.22222222222223,4.499999999999994,64.94444444444444,4.499999999999994,64.66666666666667,4.499999999999994C63.77777777777778,4.499999999999994,63.166666666666664,4.2777777777777715,62.888888888888886,3.722222222222216C62.611111111111114,3.1666666666666603,62.5,2.333333333333327,62.666666666666664,1.222222222222216C62.666666666666664,1.222222222222216,63.55555555555556,-5.166666666666673,63.55555555555556,-5.166666666666673C63.55555555555556,-5.166666666666673,66.05555555555556,-5.166666666666673,66.05555555555556,-5.166666666666673C66.05555555555556,-5.166666666666673,65.33333333333333,-6.217248937900877e-15,65.33333333333333,-6.217248937900877e-15C65.16666666666667,0.9444444444444384,65.16666666666667,1.4999999999999938,65.22222222222223,1.722222222222216C65.27777777777777,1.9444444444444384,65.33333333333333,2.1666666666666603,65.44444444444444,2.222222222222216C65.55555555555556,2.2777777777777715,65.72222222222223,2.333333333333327,65.94444444444444,2.333333333333327C66.16666666666667,2.333333333333327,66.33333333333333,2.2777777777777715,66.5,2.222222222222216C66.66666666666667,2.1666666666666603,66.83333333333333,2.055555555555549,67,1.9444444444444384C67.33333333333333,1.6666666666666603,67.55555555555556,1.4444444444444384,67.72222222222223,1.2777777777777715C67.72222222222223,1.2777777777777715,68.61111111111111,-5.166666666666673,68.61111111111111,-5.166666666666673C68.61111111111111,-5.166666666666673,71.11111111111111,-5.166666666666673,71.11111111111111,-5.166666666666673C71.11111111111111,-5.166666666666673,69.77777777777777,4.2777777777777715,69.77777777777777,4.2777777777777715M76.7222222222222,1.9444444444444384C77.05555555555553,1.4444444444444384,77.27777777777776,0.6666666666666607,77.44444444444443,-0.44444444444445086C77.61111111111109,-1.5555555555555616,77.55555555555553,-2.3333333333333393,77.38888888888887,-2.8333333333333393C77.2222222222222,-3.3333333333333393,76.83333333333331,-3.5555555555555616,76.33333333333331,-3.5555555555555616C75.83333333333331,-3.5555555555555616,75.38888888888887,-3.3333333333333393,75.11111111111109,-2.8333333333333393C74.83333333333331,-2.3333333333333393,74.61111111111109,-1.5555555555555616,74.44444444444443,-0.44444444444445086C74.27777777777776,0.6666666666666607,74.27777777777776,1.4444444444444384,74.44444444444443,1.9444444444444384C74.61111111111109,2.4444444444444384,74.99999999999997,2.722222222222216,75.49999999999997,2.722222222222216C75.99999999999997,2.722222222222216,76.38888888888887,2.4444444444444384,76.7222222222222,1.9444444444444384C76.7222222222222,1.9444444444444384,76.7222222222222,1.9444444444444384,76.7222222222222,1.9444444444444384M79.99999999999997,-2.7222222222222285C80.11111111111109,-2.111111111111117,80.11111111111109,-1.3333333333333393,79.99999999999997,-0.44444444444445086C79.88888888888887,0.4444444444444384,79.66666666666664,1.222222222222216,79.38888888888887,1.8333333333333273C79.11111111111109,2.4444444444444384,78.7222222222222,2.999999999999994,78.33333333333331,3.3888888888888826C77.55555555555553,4.166666666666661,76.55555555555553,4.499999999999994,75.2222222222222,4.499999999999994C73.27777777777776,4.499999999999994,72.11111111111109,3.611111111111105,71.83333333333331,1.8333333333333273C71.7222222222222,1.222222222222216,71.7222222222222,0.4444444444444384,71.88888888888887,-0.44444444444445086C72.11111111111109,-2.111111111111117,72.61111111111109,-3.3888888888888946,73.49999999999997,-4.2222222222222285C74.27777777777776,-5.000000000000005,75.33333333333331,-5.388888888888895,76.55555555555553,-5.388888888888895C78.55555555555553,-5.388888888888895,79.7222222222222,-4.500000000000005,79.99999999999997,-2.7222222222222285C79.99999999999997,-2.7222222222222285,79.99999999999997,-2.7222222222222285,79.99999999999997,-2.7222222222222285M88.05555555555554,4.2777777777777715C88.05555555555554,4.2777777777777715,85.88888888888889,4.2777777777777715,85.88888888888889,4.2777777777777715C85.88888888888889,4.2777777777777715,85.94444444444444,2.999999999999994,85.94444444444444,2.999999999999994C85.94444444444444,2.999999999999994,85.33333333333333,3.4444444444444384,85.33333333333333,3.4444444444444384C85.05555555555554,3.833333333333327,84.5,4.166666666666661,83.77777777777777,4.388888888888882C83.5,4.499999999999994,83.22222222222221,4.499999999999994,82.94444444444444,4.499999999999994C82.05555555555554,4.499999999999994,81.44444444444444,4.2777777777777715,81.16666666666666,3.722222222222216C80.88888888888889,3.1666666666666603,80.77777777777777,2.333333333333327,80.94444444444444,1.222222222222216C80.94444444444444,1.222222222222216,81.83333333333333,-5.166666666666673,81.83333333333333,-5.166666666666673C81.83333333333333,-5.166666666666673,84.33333333333333,-5.166666666666673,84.33333333333333,-5.166666666666673C84.33333333333333,-5.166666666666673,83.6111111111111,-6.217248937900877e-15,83.6111111111111,-6.217248937900877e-15C83.44444444444444,0.9444444444444384,83.44444444444444,1.4999999999999938,83.5,1.722222222222216C83.55555555555554,1.9444444444444384,83.6111111111111,2.1666666666666603,83.72222222222221,2.222222222222216C83.83333333333333,2.2777777777777715,84,2.333333333333327,84.22222222222221,2.333333333333327C84.44444444444444,2.333333333333327,84.6111111111111,2.2777777777777715,84.77777777777777,2.222222222222216C84.94444444444444,2.1666666666666603,85.1111111111111,2.055555555555549,85.27777777777777,1.9444444444444384C85.6111111111111,1.6666666666666603,85.83333333333333,1.4444444444444384,86,1.2777777777777715C86,1.2777777777777715,86.88888888888889,-5.166666666666673,86.88888888888889,-5.166666666666673C86.88888888888889,-5.166666666666673,89.38888888888889,-5.166666666666673,89.38888888888889,-5.166666666666673C89.38888888888889,-5.166666666666673,88.05555555555554,4.2777777777777715,88.05555555555554,4.2777777777777715M90.61111111111111,2.111111111111105C90.66666666666667,2.111111111111105,90.72222222222223,2.222222222222216,90.88888888888889,2.2777777777777715C91.05555555555556,2.333333333333327,91.22222222222223,2.3888888888888826,91.44444444444444,2.4444444444444384C91.94444444444444,2.611111111111105,92.33333333333333,2.722222222222216,92.66666666666667,2.722222222222216C93,2.722222222222216,93.27777777777777,2.6666666666666607,93.5,2.555555555555549C93.72222222222223,2.4444444444444384,93.77777777777777,2.222222222222216,93.83333333333333,1.9444444444444384C93.88888888888889,1.6666666666666603,93.88888888888889,1.3888888888888826,93.72222222222223,1.1666666666666607C93.55555555555556,0.9444444444444384,93.38888888888889,0.7777777777777715,93.16666666666667,0.5555555555555496C92.94444444444444,0.33333333333332726,92.72222222222223,0.16666666666666075,92.44444444444444,-0.055555555555561575C92.16666666666667,-0.2777777777777839,91.94444444444444,-0.44444444444445086,91.72222222222223,-0.7222222222222285C91.22222222222223,-1.3333333333333393,91,-2.000000000000006,91.11111111111111,-2.777777777777784C91.22222222222223,-3.5555555555555616,91.61111111111111,-4.2222222222222285,92.22222222222223,-4.666666666666673C92.83333333333333,-5.111111111111116,93.61111111111111,-5.388888888888895,94.66666666666667,-5.388888888888895C95.44444444444444,-5.388888888888895,96.27777777777777,-5.2222222222222285,97,-5.000000000000005C97,-5.000000000000005,96.61111111111111,-3.1666666666666723,96.61111111111111,-3.1666666666666723C96.44444444444444,-3.1666666666666723,96.22222222222223,-3.277777777777784,95.88888888888889,-3.3888888888888946C95.55555555555556,-3.500000000000006,95.16666666666667,-3.5555555555555616,94.77777777777777,-3.5555555555555616C94.05555555555556,-3.5555555555555616,93.61111111111111,-3.277777777777784,93.5,-2.777777777777784C93.44444444444444,-2.5555555555555616,93.55555555555556,-2.3333333333333393,93.72222222222223,-2.1666666666666723C93.88888888888889,-2.000000000000006,94.05555555555556,-1.777777777777784,94.27777777777777,-1.611111111111117C94.27777777777777,-1.611111111111117,95.05555555555556,-1.0000000000000062,95.05555555555556,-1.0000000000000062C95.05555555555556,-1.0000000000000062,95.61111111111111,-0.5555555555555616,95.83333333333333,-0.33333333333333925C96.38888888888889,0.2222222222222161,96.55555555555556,0.8888888888888826,96.44444444444444,1.6666666666666603C96.38888888888889,2.4444444444444384,96.05555555555556,3.111111111111105,95.44444444444444,3.6666666666666603C94.77777777777777,4.222222222222216,93.94444444444444,4.499999999999994,92.83333333333333,4.499999999999994C92.11111111111111,4.499999999999994,91.55555555555556,4.444444444444438,91.16666666666667,4.2777777777777715C90.5,4.055555555555549,90.11111111111111,3.8888888888888826,89.94444444444444,3.7777777777777715C89.94444444444444,3.7777777777777715,90.61111111111111,2.111111111111105,90.61111111111111,2.111111111111105M107.94444444444444,2.3888888888888826C108.77777777777777,2.3888888888888826,109.5,1.9999999999999938,109.94444444444444,1.3333333333333273C110.38888888888889,0.6666666666666607,110.72222222222221,-0.33333333333333925,110.94444444444444,-1.7222222222222285C111.16666666666666,-3.1666666666666723,111.05555555555554,-4.277777777777784,110.77777777777777,-4.94444444444445C110.5,-5.611111111111116,109.94444444444444,-5.888888888888895,109.1111111111111,-5.888888888888895C109.1111111111111,-5.888888888888895,108.66666666666666,-5.888888888888895,108.66666666666666,-5.888888888888895C108.66666666666666,-5.888888888888895,108.22222222222221,-5.888888888888895,108.22222222222221,-5.888888888888895C108.22222222222221,-5.888888888888895,107.05555555555554,2.3888888888888826,107.05555555555554,2.3888888888888826C107.05555555555554,2.3888888888888826,107.94444444444444,2.3888888888888826,107.94444444444444,2.3888888888888826C107.94444444444444,2.3888888888888826,107.94444444444444,2.3888888888888826,107.94444444444444,2.3888888888888826M105.94444444444444,-7.833333333333339C105.94444444444444,-7.833333333333339,105.88888888888889,-7.833333333333339,109.1111111111111,-7.888888888888895C109.94444444444444,-7.888888888888895,110.77777777777777,-7.833333333333339,111.38888888888889,-7.666666666666673C112,-7.500000000000005,112.5,-7.166666666666673,112.88888888888889,-6.7222222222222285C113.6111111111111,-5.777777777777784,113.83333333333333,-4.111111111111118,113.55555555555554,-1.7222222222222285C113.1111111111111,1.611111111111105,111.83333333333333,3.555555555555549,109.72222222222221,4.1111111111111045C109.05555555555554,4.2777777777777715,108.27777777777777,4.388888888888882,107.5,4.388888888888882C106.72222222222221,4.388888888888882,106.05555555555554,4.388888888888882,105.5,4.333333333333327C104.94444444444444,4.2777777777777715,104.5,4.2777777777777715,104.22222222222221,4.2777777777777715C104.22222222222221,4.2777777777777715,105.94444444444444,-7.833333333333339,105.94444444444444,-7.833333333333339M119.94444444444446,-3.111111111111117C119.77777777777779,-3.44444444444445,119.55555555555556,-3.611111111111117,119.22222222222223,-3.611111111111117C118.8888888888889,-3.611111111111117,118.55555555555556,-3.44444444444445,118.22222222222223,-3.111111111111117C117.8888888888889,-2.777777777777784,117.66666666666667,-2.111111111111117,117.55555555555556,-1.2222222222222285C117.55555555555556,-1.2222222222222285,120.05555555555556,-1.2222222222222285,120.05555555555556,-1.2222222222222285C120.16666666666667,-2.111111111111117,120.11111111111111,-2.777777777777784,119.94444444444446,-3.111111111111117C119.94444444444446,-3.111111111111117,119.94444444444446,-3.111111111111117,119.94444444444446,-3.111111111111117M118.8888888888889,2.611111111111105C119.66666666666667,2.611111111111105,120.44444444444446,2.3888888888888826,121.22222222222223,1.9444444444444384C121.22222222222223,1.9444444444444384,121.5,3.611111111111105,121.5,3.611111111111105C121.05555555555556,3.944444444444438,120.33333333333334,4.166666666666661,119.33333333333334,4.388888888888882C118.94444444444446,4.499999999999994,118.55555555555556,4.499999999999994,118.05555555555556,4.499999999999994C117.55555555555556,4.499999999999994,117.11111111111111,4.444444444444438,116.66666666666667,4.2777777777777715C116.22222222222223,4.1111111111111045,115.83333333333334,3.833333333333327,115.55555555555556,3.4444444444444384C114.8888888888889,2.611111111111105,114.72222222222223,1.3888888888888826,114.94444444444446,-0.16666666666667318C115.16666666666667,-1.8333333333333393,115.66666666666667,-3.1666666666666723,116.55555555555556,-4.111111111111118C117.3888888888889,-4.94444444444445,118.33333333333334,-5.388888888888895,119.44444444444446,-5.388888888888895C121.11111111111111,-5.388888888888895,122.11111111111111,-4.611111111111118,122.3888888888889,-3.000000000000006C122.55555555555556,-2.1666666666666723,122.5,-1.2222222222222285,122.22222222222223,-0.11111111111111693C122.16666666666667,0.11111111111110539,122.16666666666667,0.2222222222222161,122.11111111111111,0.27777777777777146C122.11111111111111,0.27777777777777146,117.33333333333334,0.27777777777777146,117.33333333333334,0.27777777777777146C117.22222222222223,1.111111111111105,117.27777777777779,1.6666666666666603,117.61111111111111,2.055555555555549C117.94444444444446,2.4444444444444384,118.33333333333334,2.611111111111105,118.8888888888889,2.611111111111105C118.8888888888889,2.611111111111105,118.8888888888889,2.611111111111105,118.8888888888889,2.611111111111105M125.77777777777777,4.2777777777777715C125.77777777777777,4.2777777777777715,123.27777777777777,4.2777777777777715,123.27777777777777,4.2777777777777715C123.27777777777777,4.2777777777777715,125.1111111111111,-8.94444444444445,125.1111111111111,-8.94444444444445C125.1111111111111,-8.94444444444445,127.66666666666666,-9.277777777777784,127.66666666666666,-9.277777777777784C127.66666666666666,-9.277777777777784,125.77777777777777,4.2777777777777715,125.77777777777777,4.2777777777777715M132.61111111111111,-9.111111111111116C132.83333333333334,-8.83333333333334,132.88888888888889,-8.500000000000005,132.83333333333334,-8.05555555555556C132.77777777777777,-7.611111111111116,132.55555555555554,-7.277777777777784,132.27777777777777,-7.000000000000005C132,-6.7222222222222285,131.61111111111111,-6.555555555555561,131.22222222222223,-6.555555555555561C130.83333333333334,-6.555555555555561,130.5,-6.7222222222222285,130.27777777777777,-7.000000000000005C130.05555555555554,-7.277777777777784,129.94444444444446,-7.611111111111116,130,-8.05555555555556C130.11111111111111,-8.500000000000005,130.33333333333334,-8.83333333333334,130.61111111111111,-9.111111111111116C130.88888888888889,-9.388888888888895,131.27777777777777,-9.55555555555556,131.66666666666666,-9.55555555555556C132.05555555555554,-9.55555555555556,132.38888888888889,-9.388888888888895,132.61111111111111,-9.111111111111116C132.61111111111111,-9.111111111111116,132.61111111111111,-9.111111111111116,132.61111111111111,-9.111111111111116M130.94444444444446,4.2777777777777715C130.94444444444446,4.2777777777777715,128.44444444444446,4.2777777777777715,128.44444444444446,4.2777777777777715C128.44444444444446,4.2777777777777715,129.72222222222223,-5.000000000000005,129.72222222222223,-5.000000000000005C129.72222222222223,-5.000000000000005,132.27777777777777,-5.333333333333339,132.27777777777777,-5.333333333333339C132.27777777777777,-5.333333333333339,130.94444444444446,4.2777777777777715,130.94444444444446,4.2777777777777715M134.99999999999997,4.2777777777777715C134.99999999999997,4.2777777777777715,133.55555555555554,-5.166666666666673,133.55555555555554,-5.166666666666673C133.55555555555554,-5.166666666666673,136.05555555555554,-5.166666666666673,136.05555555555554,-5.166666666666673C136.05555555555554,-5.166666666666673,136.44444444444443,-1.2222222222222285,136.44444444444443,-1.2222222222222285C136.44444444444443,-1.2222222222222285,136.55555555555554,2.722222222222216,136.55555555555554,2.722222222222216C136.55555555555554,2.722222222222216,137.77777777777774,-1.2222222222222285,137.77777777777774,-1.2222222222222285C137.77777777777774,-1.2222222222222285,139.2222222222222,-5.166666666666673,139.2222222222222,-5.166666666666673C139.2222222222222,-5.166666666666673,141.77777777777774,-5.166666666666673,141.77777777777774,-5.166666666666673C141.77777777777774,-5.166666666666673,137.7222222222222,4.2777777777777715,137.7222222222222,4.2777777777777715C137.7222222222222,4.2777777777777715,134.99999999999997,4.2777777777777715,134.99999999999997,4.2777777777777715C134.99999999999997,4.2777777777777715,134.99999999999997,4.2777777777777715,134.99999999999997,4.2777777777777715M147.49999999999997,-3.111111111111117C147.33333333333331,-3.44444444444445,147.1111111111111,-3.611111111111117,146.77777777777777,-3.611111111111117C146.44444444444443,-3.611111111111117,146.1111111111111,-3.44444444444445,145.77777777777777,-3.111111111111117C145.44444444444443,-2.777777777777784,145.2222222222222,-2.111111111111117,145.1111111111111,-1.2222222222222285C145.1111111111111,-1.2222222222222285,147.6111111111111,-1.2222222222222285,147.6111111111111,-1.2222222222222285C147.7222222222222,-2.111111111111117,147.66666666666666,-2.777777777777784,147.49999999999997,-3.111111111111117C147.49999999999997,-3.111111111111117,147.49999999999997,-3.111111111111117,147.49999999999997,-3.111111111111117M146.44444444444443,2.611111111111105C147.2222222222222,2.611111111111105,147.99999999999997,2.3888888888888826,148.77777777777777,1.9444444444444384C148.77777777777777,1.9444444444444384,149.05555555555554,3.611111111111105,149.05555555555554,3.611111111111105C148.6111111111111,3.944444444444438,147.88888888888886,4.166666666666661,146.88888888888886,4.388888888888882C146.49999999999997,4.499999999999994,146.1111111111111,4.499999999999994,145.6111111111111,4.499999999999994C145.1111111111111,4.499999999999994,144.66666666666666,4.444444444444438,144.2222222222222,4.2777777777777715C143.77777777777777,4.1111111111111045,143.38888888888886,3.833333333333327,143.1111111111111,3.4444444444444384C142.44444444444443,2.611111111111105,142.27777777777777,1.3888888888888826,142.49999999999997,-0.16666666666667318C142.7222222222222,-1.8333333333333393,143.2222222222222,-3.1666666666666723,144.1111111111111,-4.111111111111118C144.94444444444443,-4.94444444444445,145.88888888888886,-5.388888888888895,146.99999999999997,-5.388888888888895C148.66666666666666,-5.388888888888895,149.66666666666666,-4.611111111111118,149.94444444444443,-3.000000000000006C150.1111111111111,-2.1666666666666723,150.05555555555554,-1.2222222222222285,149.77777777777777,-0.11111111111111693C149.7222222222222,0.11111111111110539,149.7222222222222,0.2222222222222161,149.66666666666666,0.27777777777777146C149.66666666666666,0.27777777777777146,144.88888888888886,0.27777777777777146,144.88888888888886,0.27777777777777146C144.77777777777777,1.111111111111105,144.83333333333331,1.6666666666666603,145.16666666666666,2.055555555555549C145.49999999999997,2.4444444444444384,145.88888888888886,2.611111111111105,146.44444444444443,2.611111111111105C146.44444444444443,2.611111111111105,146.44444444444443,2.611111111111105,146.44444444444443,2.611111111111105M153.33333333333331,4.2777777777777715C153.33333333333331,4.2777777777777715,150.83333333333331,4.2777777777777715,150.83333333333331,4.2777777777777715C150.83333333333331,4.2777777777777715,152.16666666666663,-5.166666666666673,152.16666666666663,-5.166666666666673C152.16666666666663,-5.166666666666673,154.38888888888886,-5.166666666666673,154.38888888888886,-5.166666666666673C154.38888888888886,-5.166666666666673,154.27777777777774,-3.8888888888888946,154.27777777777774,-3.8888888888888946C154.27777777777774,-3.8888888888888946,154.33333333333331,-3.8888888888888946,154.33333333333331,-3.8888888888888946C154.6111111111111,-4.333333333333339,154.9444444444444,-4.7222222222222285,155.33333333333331,-5.000000000000005C155.7222222222222,-5.277777777777784,156.1111111111111,-5.388888888888895,156.38888888888886,-5.388888888888895C156.66666666666663,-5.388888888888895,156.88888888888886,-5.388888888888895,156.99999999999997,-5.333333333333339C157.1111111111111,-5.277777777777784,157.16666666666663,-5.277777777777784,157.27777777777774,-5.2222222222222285C157.27777777777774,-5.2222222222222285,156.77777777777774,-3.0555555555555616,156.77777777777774,-3.0555555555555616C156.66666666666663,-3.0555555555555616,156.49999999999997,-3.111111111111117,156.33333333333331,-3.1666666666666723C156.16666666666663,-3.2222222222222285,155.99999999999997,-3.2222222222222285,155.77777777777774,-3.2222222222222285C155.55555555555551,-3.2222222222222285,155.33333333333331,-3.2222222222222285,155.1111111111111,-3.0555555555555616C154.88888888888886,-2.8888888888888946,154.55555555555551,-2.6666666666666723,154.2222222222222,-2.3333333333333393C154.2222222222222,-2.3333333333333393,153.33333333333331,4.2777777777777715,153.33333333333331,4.2777777777777715M158.61111111111111,6.4444444444444375C159.38888888888889,6.722222222222216,160.22222222222223,6.833333333333327,160.94444444444446,6.833333333333327C161.5,6.833333333333327,161.83333333333334,6.7777777777777715,162,6.6111111111111045C162.33333333333334,6.333333333333327,162.55555555555554,5.833333333333327,162.66666666666666,5.1111111111111045C162.66666666666666,5.1111111111111045,163,3.055555555555549,163,3.055555555555549C163,3.055555555555549,162.94444444444446,3.055555555555549,162.94444444444446,3.055555555555549C162,3.999999999999994,161.05555555555554,4.499999999999994,160.16666666666666,4.499999999999994C159.27777777777777,4.499999999999994,158.66666666666666,4.222222222222216,158.38888888888889,3.6666666666666603C158.11111111111111,3.111111111111105,158,2.2777777777777715,158.16666666666666,1.1666666666666607C158.16666666666666,1.1666666666666607,159.05555555555554,-5.166666666666673,159.05555555555554,-5.166666666666673C159.05555555555554,-5.166666666666673,161.55555555555554,-5.166666666666673,161.55555555555554,-5.166666666666673C161.55555555555554,-5.166666666666673,160.77777777777777,0.5555555555555496,160.77777777777777,0.5555555555555496C160.72222222222223,1.2777777777777715,160.66666666666666,1.7777777777777715,160.72222222222223,1.9444444444444384C160.83333333333334,2.222222222222216,161.11111111111111,2.333333333333327,161.5,2.333333333333327C161.94444444444446,2.333333333333327,162.38888888888889,2.055555555555549,162.94444444444446,1.5555555555555496C163.05555555555554,1.4444444444444384,163.16666666666666,1.3888888888888826,163.22222222222223,1.3333333333333273C163.22222222222223,1.3333333333333273,164.16666666666666,-5.166666666666673,164.16666666666666,-5.166666666666673C164.16666666666666,-5.166666666666673,166.61111111111111,-5.166666666666673,166.61111111111111,-5.166666666666673C166.61111111111111,-5.166666666666673,165.16666666666666,5.055555555555549,165.16666666666666,5.055555555555549C165,6.2777777777777715,164.61111111111111,7.222222222222216,163.94444444444446,7.833333333333327C163.27777777777777,8.444444444444438,162.33333333333334,8.722222222222216,161.11111111111111,8.722222222222216C160.22222222222223,8.722222222222216,159.27777777777777,8.55555555555555,158.16666666666666,8.16666666666666C158.16666666666666,8.16666666666666,158.61111111111111,6.4444444444444375,158.61111111111111,6.4444444444444375"/>
</g>
            </g>
        </g>
    </g>
    
    
</svg>