<svg xmlns="http://www.w3.org/2000/svg" viewBox="0 0 63 63"><path d="M32.056 46.929c-8.502 0-15.418-6.921-15.418-15.429 0-8.507 6.916-15.429 15.418-15.429S47.474 22.993 47.474 31.5c0 8.508-6.916 15.429-15.418 15.429zm0-27.856c-6.847 0-12.418 5.575-12.418 12.427s5.571 12.427 12.418 12.427c6.848 0 12.418-5.575 12.418-12.427s-5.57-12.427-12.418-12.427z"/><path d="M48.948 44.351c-2.508 0-4.97-.67-7.12-1.938a1.502 1.502 0 0 1 1.521-2.587 11.036 11.036 0 0 0 5.599 1.523c6.094 0 11.052-4.962 11.052-11.06 0-6.097-4.958-11.059-11.052-11.059-2.342 0-4.579.724-6.47 2.093a1.5 1.5 0 1 1-1.758-2.433 13.945 13.945 0 0 1 8.228-2.662C56.696 16.228 63 22.536 63 30.289s-6.304 14.062-14.052 14.062zM14.74 46.251C6.612 46.251 0 39.634 0 31.5s6.612-14.751 14.74-14.751c3.028 0 5.938.912 8.416 2.639a1.501 1.501 0 0 1-1.715 2.463 11.664 11.664 0 0 0-6.701-2.1C8.266 19.751 3 25.022 3 31.5s5.266 11.749 11.74 11.749c2.479 0 4.848-.763 6.852-2.208a1.5 1.5 0 1 1 1.754 2.436 14.629 14.629 0 0 1-8.606 2.774zM30.399 30.38l6.56-6.149-3.245 8.389a2.05 2.05 0 1 1-3.826-1.482c.114-.295.296-.554.511-.758z"/><path d="M48.66 29.703l3.983-5.55-1.222 6.723a1.538 1.538 0 1 1-2.761-1.173zM13.527 32.906l-6.145-3.9 7.195 1.088a1.535 1.535 0 1 1-1.05 2.812z"/></svg>