<svg xmlns="http://www.w3.org/2000/svg" width="300" height="300"><defs><linearGradient x1="0" y1="0" x2="0" y2="1" id="a"><stop offset="0" stop-color="#fff"/></linearGradient></defs><rect width="100%" height="100%" fill="url(#a)"/><g><g transform="matrix(2.5 0 0 2.5 -75 7.5)"><defs><filter x="-50%" y="-50%" width="200%" height="200%" id="b"><feMerge><feMergeNode in="SourceGraphic"/></feMerge></filter></defs><g filter="url(#b)" transform="matrix(.96 0 0 .96 42 25.44)"><defs><linearGradient x1="0" y1="0" x2="0" y2="1" id="c" gradientTransform="rotate(-180 .5 .5)"><stop offset="0" stop-color="#420073"/><stop offset="1" stop-color="#AE8BFF"/></linearGradient></defs><path fill="url(#c)" d="M93.1 17.95q-3.25-3.3-7.5-5.1Q81.2 11 76.4 11q-5.1 0-9.75 2.1-3.95-5.85-10.2-9.2Q50.05.45 42.75.45q-4.55 0-8.5 1.1-4.25 1.2-7.35 3.6Q21.9 9 22.5 16q.65 7.3 7.4 15.65 7.45 9.2 20.8 17.55 15 9.4 35.75 16.55-5.45-3.55-7.5-4.95-3.35-2.3-2.55-2.3 4.8 0 9.2-1.85 4.25-1.85 7.5-5.15 3.25-3.3 5.05-7.55 1.85-4.4 1.85-9.2 0-4.8-1.85-9.2-1.8-4.3-5.05-7.6z"/><defs><linearGradient x1="0" y1="0" x2="0" y2="1" id="d" gradientTransform="rotate(-180 .5 .5)"><stop offset="0" stop-color="#FF6E00"/><stop offset="1" stop-color="#FFB115"/></linearGradient></defs><path fill="url(#d)" d="M4.1 30.8Q0 35.5 0 41.7q0 6.8 4.85 11.65 4.85 4.8 11.65 4.8 29.2.2 46.1.3-23.8-4.7-38.5-19.35-4.6-4.6-7.75-9.65-.95-1.55-1.7-3l-.5-1.1Q8.1 26.2 4.1 30.8z"/><g><defs><linearGradient x1="0" y1="0" x2="0" y2="1" id="e" gradientTransform="rotate(-180 .5 .5)"><stop offset="0"/><stop offset="1" stop-color="#420073"/></linearGradient></defs><path fill="url(#e)" d="M12.35 4.3q-1.85 3.7.1 9.25 2.25 6.5 9.45 14.25-4.05-5.35-5.65-10.6-1.4-4.7-.65-8.5.75-3.55 3.1-5.25 2.3-1.7 5.4-.85Q21.2 0 17.65.5q-3.65.55-5.3 3.8z"/></g><g><defs><linearGradient x1="0" y1="0" x2="0" y2="1" id="f" gradientTransform="rotate(-180 .5 .5)"><stop offset="0" stop-color="#FFF"/><stop offset="1" stop-color="#FFF"/></linearGradient></defs><path fill="url(#f)" d="M96.05 29.8q-2.15-5.65-6.7-9.4-4.15-3.5-9.25-4.6-5.05-1.1-9.25.5-4.45 1.7-6.5 5.9 8.25-4.75 17.15-2.45 8.6 2.15 14.55 10.05z"/></g></g></g></g></svg>