<svg xmlns="http://www.w3.org/2000/svg" width="300" height="300"><defs><linearGradient x1="0" y1="0" x2="0" y2="1" id="a"><stop offset="0" stop-color="#fff"/></linearGradient></defs><rect width="100%" height="100%" fill="url(#a)"/><g><g transform="matrix(2.2257 0 0 2.2257 -52.572 -26.622)"><defs><filter x="-50%" y="-50%" width="200%" height="200%" id="b"><feMerge><feMergeNode in="SourceGraphic"/></feMerge></filter></defs><g filter="url(#b)" transform="matrix(.96 0 0 .96 42 25.44)"><defs><linearGradient x1="0" y1="0" x2="0" y2="1" id="c" gradientTransform="rotate(-180 .5 .5)"><stop offset="0" stop-color="#420073"/><stop offset="1" stop-color="#AE8BFF"/></linearGradient></defs><path fill="url(#c)" d="M93.1 17.95q-3.25-3.3-7.5-5.1Q81.2 11 76.4 11q-5.1 0-9.75 2.1-3.95-5.85-10.2-9.2Q50.05.45 42.75.45q-4.55 0-8.5 1.1-4.25 1.2-7.35 3.6Q21.9 9 22.5 16q.65 7.3 7.4 15.65 7.45 9.2 20.8 17.55 15 9.4 35.75 16.55-5.45-3.55-7.5-4.95-3.35-2.3-2.55-2.3 4.8 0 9.2-1.85 4.25-1.85 7.5-5.15 3.25-3.3 5.05-7.55 1.85-4.4 1.85-9.2 0-4.8-1.85-9.2-1.8-4.3-5.05-7.6z"/><defs><linearGradient x1="0" y1="0" x2="0" y2="1" id="d" gradientTransform="rotate(-180 .5 .5)"><stop offset="0" stop-color="#FF6E00"/><stop offset="1" stop-color="#FFB115"/></linearGradient></defs><path fill="url(#d)" d="M4.1 30.8Q0 35.5 0 41.7q0 6.8 4.85 11.65 4.85 4.8 11.65 4.8 29.2.2 46.1.3-23.8-4.7-38.5-19.35-4.6-4.6-7.75-9.65-.95-1.55-1.7-3l-.5-1.1Q8.1 26.2 4.1 30.8z"/><g><defs><linearGradient x1="0" y1="0" x2="0" y2="1" id="e" gradientTransform="rotate(-180 .5 .5)"><stop offset="0"/><stop offset="1" stop-color="#420073"/></linearGradient></defs><path fill="url(#e)" d="M12.35 4.3q-1.85 3.7.1 9.25 2.25 6.5 9.45 14.25-4.05-5.35-5.65-10.6-1.4-4.7-.65-8.5.75-3.55 3.1-5.25 2.3-1.7 5.4-.85Q21.2 0 17.65.5q-3.65.55-5.3 3.8z"/></g><g><defs><linearGradient x1="0" y1="0" x2="0" y2="1" id="f" gradientTransform="rotate(-180 .5 .5)"><stop offset="0" stop-color="#FFF"/><stop offset="1" stop-color="#FFF"/></linearGradient></defs><path fill="url(#f)" d="M96.05 29.8q-2.15-5.65-6.7-9.4-4.15-3.5-9.25-4.6-5.05-1.1-9.25.5-4.45 1.7-6.5 5.9 8.25-4.75 17.15-2.45 8.6 2.15 14.55 10.05z"/></g></g></g><g transform="matrix(3.6083 0 0 3.6083 -4.313 207.796)"><defs><linearGradient x1="0" y1="0" x2="0" y2="1" id="h"><stop offset="0"/></linearGradient></defs><defs><filter x="-50%" y="-50%" width="200%" height="200%" id="g"><feFlood flood-color="#000"/><feComposite operator="xor" in2="SourceGraphic"/><feGaussianBlur stdDeviation="1"/><feOffset dy="1"/><feComponentTransfer><feFuncA type="linear" slope=".7"/></feComponentTransfer><feComposite operator="in" in2="SourceGraphic"/><feComposite in2="SourceGraphic" result="inner"/><feMerge><feMergeNode in="SourceGraphic"/><feMergeNode in="inner"/></feMerge></filter></defs><path filter="url(#g)" fill="url(#h)" d="M19.722-5.444c-.11.277-.278.666-.444 1.11-.222.667-.222.723-.5 1.5-.278.778-.278.778-.611 1.612-.334.833-.278.889-.611 1.666h2.61L20-1.222s-.056-1.111-.111-1.611c-.056-.5-.056-1.056-.111-1.5-.056-.445-.056-.834-.056-1.111m-1.166-2.39h3.11l1.556 12.112h-2.666l-.223-2.111h-3.389l-.888 2.11H13.5l5.056-12.11m9.555 5.61L27.444 2.5c.278.167.667.222 1.056.222.611 0 1.111-.278 1.5-.722.389-.444.611-1.222.778-2.333.166-1.111.11-1.834-.056-2.278-.166-.445-.555-.667-1.055-.667-.5 0-1.056.39-1.556 1.056m-2.055-2.945h2.277l-.055 1.223h.055c.223-.223.5-.5.834-.723.666-.444 1.222-.722 1.722-.722s.944.111 1.278.333c.333.223.61.445.833.834.444.889.611 2.11.389 3.666-.222 1.667-.778 2.945-1.611 3.834C31.056 4.11 30.11 4.5 29 4.5a4.606 4.606 0 0 1-1.778-.333l-.666 4.277H24.11l1.945-13.61m12.11 2.944L37.5 2.5c.278.167.667.222 1.056.222.61 0 1.11-.278 1.5-.722.388-.444.61-1.222.777-2.333.167-1.111.111-1.834-.055-2.278-.167-.445-.556-.667-1.056-.667s-1.055.39-1.555 1.056M36.11-5.167h2.278l-.056 1.223h.056c.222-.223.5-.5.833-.723.667-.444 1.222-.722 1.722-.722s.945.111 1.278.333c.334.223.611.445.834.834.444.889.61 2.11.388 3.666-.222 1.667-.777 2.945-1.61 3.834-.723.833-1.667 1.222-2.778 1.222a4.606 4.606 0 0 1-1.778-.333l-.667 4.277h-2.444l1.944-13.61m16.5 9.444h-2.555l.722-5H47.5l-.722 5h-2.556l1.722-12.111H48.5l-.722 5.11h3.278l.722-5.11h2.555l-1.722 12.11m9.611 0h-2.166L60.11 3l-.611.444c-.278.39-.833.723-1.556.945-.277.111-.555.111-.833.111-.889 0-1.5-.222-1.778-.778-.277-.555-.389-1.389-.222-2.5L56-5.167h2.5L57.778 0c-.167.944-.167 1.5-.111 1.722.055.222.11.445.222.5.111.056.278.111.5.111.222 0 .389-.055.555-.11.167-.056.334-.167.5-.279.334-.277.556-.5.723-.666l.889-6.445h2.5l-1.334 9.445m5.556-6.945c-.111.111-.167.223-.222.278l-.612 4.167c.167.166.334.278.5.389a.939.939 0 0 0 .556.166c.611 0 1.111-.166 1.444-.61.334-.445.556-1.167.723-2.112.166-1.111.11-1.778-.056-2.222-.167-.445-.5-.667-.944-.667-.445 0-.89.222-1.39.611m-1.833-6.277l2.556-.334-.722 5.167.5-.389c.166-.167.389-.278.61-.389.5-.333 1-.5 1.445-.5.445 0 .89.111 1.223.278.333.167.61.5.833.889.5.889.611 2.11.389 3.666-.222 1.612-.778 2.89-1.556 3.723-.722.833-1.555 1.222-2.5 1.222-.778 0-1.389-.222-1.833-.778-.167-.222-.222-.278-.333-.444l-.334 1.11h-2.11l1.832-13.221"/></g><g transform="matrix(1.36172 0 0 1.36172 25.993 258.123)"><defs><linearGradient x1="0" y1="0" x2="0" y2="1" id="j"><stop offset="0"/></linearGradient></defs><defs><filter x="-50%" y="-50%" width="200%" height="200%" id="i"><feFlood flood-color="#000"/><feComposite operator="xor" in2="SourceGraphic"/><feGaussianBlur stdDeviation="1"/><feOffset dy="1"/><feComponentTransfer><feFuncA type="linear" slope=".7"/></feComponentTransfer><feComposite operator="in" in2="SourceGraphic"/><feComposite in2="SourceGraphic" result="inner"/><feMerge><feMergeNode in="SourceGraphic"/><feMergeNode in="inner"/></feMerge></filter></defs><path filter="url(#i)" fill="url(#j)" d="M16.611-1.722c-.222 1.5-.167 2.5.111 3.166.334.723 1 1.056 2 1.056.445 0 .834-.056 1.222-.167.39-.11.667-.222.89-.277V3s0 .667.055 1c-.445.167-.945.278-1.5.389-.556.111-1 .167-1.389.167-1.667 0-2.833-.5-3.5-1.556-.667-1.056-.833-2.611-.556-4.778.278-2.166.945-3.722 1.89-4.722.944-1 2.277-1.556 3.944-1.556.555 0 1.055.056 1.5.167.444.111.722.222.889.278.166.055.277.111.333.111l-.611 1.944c-.222-.055-.5-.166-.833-.277A3.582 3.582 0 0 0 19.944-6c-1.055 0-1.833.333-2.333 1.056-.5.722-.833 1.777-1 3.222M28.5 1.944c.333-.5.556-1.277.722-2.388.167-1.112.111-1.89-.055-2.39-.167-.5-.556-.722-1.056-.722s-.944.223-1.222.723-.5 1.277-.667 2.389c-.166 1.11-.166 1.888 0 2.388.167.5.556.778 1.056.778s.889-.278 1.222-.778m3.278-4.666c.11.61.11 1.389 0 2.278-.111.888-.334 1.666-.611 2.277A5.464 5.464 0 0 1 30.11 3.39C29.333 4.167 28.333 4.5 27 4.5c-1.944 0-3.111-.889-3.389-2.667-.111-.61-.111-1.389.056-2.277.222-1.667.722-2.945 1.61-3.778.779-.778 1.834-1.167 3.056-1.167 2 0 3.167.889 3.445 2.667m2.055-2.445h2.223l-.112 1.223H36c.111-.056.222-.167.389-.334.167-.166.333-.333.611-.5.667-.389 1.278-.61 1.944-.61.89 0 1.5.277 1.778.832.278.556.334 1.334.167 2.445L40 4.278h-2.444l.777-5.778c.111-.667.111-1.111 0-1.333-.11-.223-.333-.39-.722-.39-.333 0-.611.056-.889.279-.5.388-.778.666-.833.777L35 4.278h-2.5l1.333-9.445m13.611 0l-.166 1.834h-2.056l-.666 4.5c-.056.389-.056.722 0 .944.055.222.277.278.555.278s.556-.056.778-.111c.222-.056.333-.167.389-.167V3.89c-.056 0-.167.055-.334.111-.166.056-.277.167-.444.222-.444.222-.944.278-1.5.278-.833 0-1.444-.222-1.722-.667C42 3.39 41.833 2.667 42 1.556l.722-4.89h-1l.222-1.833H43l.278-2.277 2.555-.39-.389 2.667h2m4.834-3.944c.222.278.278.611.222 1.055-.056.445-.278.778-.556 1.056a1.518 1.518 0 0 1-1.055.444c-.389 0-.722-.166-.945-.444-.222-.278-.333-.611-.277-1.056.11-.444.333-.777.61-1.055a1.518 1.518 0 0 1 1.056-.445c.39 0 .723.167.945.445M50.61 4.278h-2.5L49.39-5l2.555-.333-1.333 9.61m3.945-9.444h2.222l-.111 1.223h.055c.111-.056.222-.167.39-.334.166-.166.332-.333.61-.5.667-.389 1.278-.61 1.945-.61.889 0 1.5.277 1.777.832.278.556.334 1.334.167 2.445l-.889 6.389h-2.444l.778-5.778c.11-.667.11-1.111 0-1.333-.112-.223-.334-.39-.723-.39-.333 0-.61.056-.889.279-.5.388-.777.666-.833.777l-.889 6.445h-2.5l1.334-9.445m15.222 9.445H67.61L67.667 3l-.611.444c-.278.39-.834.723-1.556.945-.278.111-.556.111-.833.111-.89 0-1.5-.222-1.778-.778-.278-.555-.389-1.389-.222-2.5l.889-6.389h2.5L65.333 0c-.166.944-.166 1.5-.11 1.722.055.222.11.445.221.5.112.056.278.111.5.111.223 0 .39-.055.556-.11.167-.056.333-.167.5-.279.333-.277.556-.5.722-.666l.89-6.445h2.5l-1.334 9.445m6.944-2.334c.334-.5.556-1.277.722-2.388.167-1.112.112-1.89-.055-2.39-.167-.5-.556-.722-1.056-.722s-.944.223-1.222.723-.5 1.277-.667 2.389c-.166 1.11-.166 1.888 0 2.388.167.5.556.778 1.056.778s.889-.278 1.222-.778M80-2.722c.111.61.111 1.389 0 2.278-.111.888-.333 1.666-.611 2.277a5.464 5.464 0 0 1-1.056 1.556c-.777.778-1.777 1.111-3.11 1.111-1.945 0-3.112-.889-3.39-2.667-.11-.61-.11-1.389.056-2.277.222-1.667.722-2.945 1.611-3.778.778-.778 1.833-1.167 3.056-1.167 2 0 3.166.889 3.444 2.667m8.056 7h-2.167L85.944 3l-.61.444c-.278.39-.834.723-1.556.945-.278.111-.556.111-.834.111-.888 0-1.5-.222-1.777-.778-.278-.555-.39-1.389-.223-2.5l.89-6.389h2.5L83.61 0c-.167.944-.167 1.5-.111 1.722.056.222.111.445.222.5.111.056.278.111.5.111.222 0 .39-.055.556-.11.166-.056.333-.167.5-.279.333-.277.555-.5.722-.666l.889-6.445h2.5l-1.333 9.445M90.61 2.11c.056 0 .111.111.278.167.167.055.333.11.555.166.5.167.89.278 1.223.278.333 0 .61-.055.833-.166.222-.112.278-.334.333-.612.056-.277.056-.555-.11-.777-.167-.223-.334-.39-.556-.611-.223-.223-.445-.39-.723-.612-.277-.222-.5-.388-.722-.666-.5-.611-.722-1.278-.61-2.056.11-.778.5-1.444 1.11-1.889.611-.444 1.39-.722 2.445-.722.777 0 1.61.167 2.333.389l-.389 1.833c-.167 0-.389-.11-.722-.222a3.582 3.582 0 0 0-1.111-.167c-.722 0-1.167.278-1.278.778-.056.222.056.445.222.611.167.167.334.39.556.556l.778.611s.555.444.777.667c.556.555.723 1.222.611 2-.055.777-.388 1.444-1 2-.666.555-1.5.833-2.61.833-.723 0-1.278-.056-1.667-.222-.667-.222-1.056-.39-1.223-.5l.667-1.667m17.333.278c.834 0 1.556-.389 2-1.056.445-.666.778-1.666 1-3.055.223-1.445.112-2.556-.166-3.222-.278-.667-.834-.945-1.667-.945h-.444-.445l-1.166 8.278h.888m-2-10.222l3.167-.056c.833 0 1.667.056 2.278.222.611.167 1.111.5 1.5.945.722.944.944 2.61.667 5-.445 3.333-1.723 5.278-3.834 5.833a9.357 9.357 0 0 1-2.222.278c-.778 0-1.444 0-2-.056-.556-.055-1-.055-1.278-.055l1.722-12.111m14 4.722c-.166-.333-.388-.5-.722-.5-.333 0-.666.167-1 .5-.333.333-.555 1-.666 1.889h2.5c.11-.89.055-1.556-.112-1.89m-1.055 5.723c.778 0 1.555-.222 2.333-.667l.278 1.667c-.444.333-1.167.556-2.167.778-.389.111-.777.111-1.277.111-.5 0-.945-.056-1.39-.222a2.367 2.367 0 0 1-1.11-.834c-.667-.833-.834-2.055-.612-3.61.223-1.667.723-3 1.612-3.945.833-.833 1.777-1.278 2.888-1.278 1.667 0 2.667.778 2.945 2.389.167.833.111 1.778-.167 2.889-.055.222-.055.333-.11.389h-4.779c-.11.833-.055 1.389.278 1.778.333.388.722.555 1.278.555m6.889 1.667h-2.5l1.833-13.222 2.556-.334-1.89 13.556m6.834-13.39c.222.279.278.612.222 1.056-.055.445-.277.778-.555 1.056a1.518 1.518 0 0 1-1.056.444c-.389 0-.722-.166-.944-.444-.222-.278-.334-.611-.278-1.056.111-.444.333-.777.611-1.055a1.518 1.518 0 0 1 1.056-.445c.389 0 .722.167.944.445m-1.667 13.389h-2.5L129.722-5l2.556-.333-1.334 9.61m4.056 0l-1.444-9.444h2.5l.388 3.945.112 3.944 1.222-3.944 1.444-3.945h2.556l-4.056 9.445H135m12.5-7.39c-.167-.332-.389-.5-.722-.5-.334 0-.667.168-1 .5-.334.334-.556 1-.667 1.89h2.5c.111-.89.056-1.556-.111-1.89m-1.056 5.723c.778 0 1.556-.222 2.334-.667l.278 1.667c-.445.333-1.167.556-2.167.778-.389.111-.778.111-1.278.111s-.944-.056-1.389-.222a2.367 2.367 0 0 1-1.11-.834c-.668-.833-.834-2.055-.612-3.61.222-1.667.722-3 1.611-3.945.833-.833 1.778-1.278 2.889-1.278 1.667 0 2.667.778 2.944 2.389.167.833.112 1.778-.166 2.889-.056.222-.056.333-.111.389h-4.778c-.111.833-.056 1.389.278 1.778.333.388.722.555 1.277.555m6.89 1.667h-2.5l1.333-9.445h2.222l-.111 1.278h.055c.278-.444.611-.833 1-1.111.39-.278.778-.389 1.056-.389s.5 0 .611.056c.111.055.167.055.278.11l-.5 2.167c-.111 0-.278-.055-.445-.11-.166-.056-.333-.056-.555-.056-.222 0-.445 0-.667.166-.222.167-.555.39-.889.723l-.889 6.61m5.278 2.167a7.085 7.085 0 0 0 2.333.39c.556 0 .89-.056 1.056-.223.333-.278.556-.778.667-1.5L163 3.056h-.056C162 4 161.056 4.5 160.167 4.5c-.89 0-1.5-.278-1.778-.833-.278-.556-.389-1.39-.222-2.5l.889-6.334h2.5l-.778 5.723c-.056.722-.111 1.222-.056 1.388.111.278.39.39.778.39.444 0 .889-.278 1.444-.778.112-.112.223-.167.278-.223l.945-6.5h2.444l-1.444 10.223c-.167 1.222-.556 2.166-1.223 2.777-.666.611-1.61.89-2.833.89-.889 0-1.833-.167-2.944-.556l.444-1.723"/></g></g></svg>