<svg xmlns="http://www.w3.org/2000/svg" width="477.909" height="477.909"><path d="M452.872 151.148l-9.629 3.986a57.836 57.836 0 0 0-11.346-11.327l3.991-9.667a5.744 5.744 0 0 0-3.104-7.498l-15.896-6.59a5.74 5.74 0 0 0-7.491 3.102l-4.036 9.663a57.396 57.396 0 0 0-16.027-.014l-3.985-9.625c-1.214-2.929-4.499-4.343-7.43-3.129l-15.901 6.585c-2.917 1.209-4.251 4.534-3.033 7.465l3.985 9.625a57.671 57.671 0 0 0-11.327 11.351l-9.66-3.993a5.748 5.748 0 0 0-7.505 3.108l-6.59 15.898a5.731 5.731 0 0 0 3.099 7.49l9.661 4.028a57.984 57.984 0 0 0-.019 16.029l-9.624 3.986c-2.922 1.209-4.34 4.501-3.127 7.433l6.581 15.889c1.213 2.931 4.536 4.254 7.472 3.041l9.628-3.986A57.783 57.783 0 0 0 362.9 235.33l-3.985 9.666a5.746 5.746 0 0 0 3.104 7.505l15.892 6.59a5.737 5.737 0 0 0 7.495-3.099l4.032-9.666a57.998 57.998 0 0 0 16.031.019l3.986 9.629c1.209 2.921 4.499 4.335 7.425 3.122l15.896-6.581c2.927-1.213 4.257-4.541 3.043-7.472l-3.985-9.619a58.02 58.02 0 0 0 11.322-11.35l9.665 3.993a5.744 5.744 0 0 0 7.5-3.108l6.59-15.889a5.731 5.731 0 0 0-3.099-7.495l-9.67-4.032a57.446 57.446 0 0 0 .023-16.029l9.623-3.986c2.931-1.213 4.345-4.501 3.132-7.432l-6.581-15.889c-1.213-2.945-4.541-4.268-7.467-3.059zm-44.501 64.914c-14.631 6.06-31.404-.889-37.463-15.523-6.066-14.633.883-31.402 15.514-37.462 14.636-6.06 31.409.889 37.468 15.523 6.062 14.629-.887 31.402-15.519 37.462z"/><path d="M383.062 274.742v126.702H172.779V81.245h210.282v23.03h23.896V38.233C406.957 17.119 389.838 0 368.725 0H187.117c-21.114 0-38.233 17.119-38.233 38.233v401.443c0 21.114 17.119 38.232 38.233 38.232h181.608c21.113 0 38.232-17.118 38.232-38.232V274.742h-23.895zM258.964 43.012h38.232a4.78 4.78 0 0 1 0 9.558h-38.232a4.78 4.78 0 0 1 0-9.558zm17.52 412.271c-10.558 0-19.116-8.56-19.116-19.116s8.559-19.116 19.116-19.116 19.116 8.56 19.116 19.116-8.559 19.116-19.116 19.116zM10.554 122h114.698v23.896H10.554zM39.229 169.791h86.023v23.896H39.229zM96.578 217.582h28.674v23.894H96.578z"/></svg>