<svg height="32" width="32" xmlns="http://www.w3.org/2000/svg"><path d="M3.5 3a.5.5 0 0 0-.5.5v25a.5.5 0 0 0 .5.5h25a.5.5 0 0 0 .5-.5v-25a.5.5 0 0 0-.5-.5h-25zM4 4h17v6H4V4zm18 0h6v17h-6V4zM4 11h6v17H4V11zm7 0h10v10H11V11zm0 11h17v6H11v-6z" style="line-height:normal;text-indent:0;text-align:start;text-decoration-line:none;text-decoration-style:solid;text-decoration-color:#000;text-transform:none;block-progression:tb;white-space:normal;isolation:auto;mix-blend-mode:normal;solid-color:#000;solid-opacity:1" color="#000" font-weight="400" font-family="sans-serif" overflow="visible"/></svg>