<svg style="display: none" xmlns="http://www.w3.org/2000/svg"><defs> <linearGradient x1="0" y1="0" x2="0" y2="1" id="logo-background127" gradientTransform="rotate(0 .5 .5)"> <stop offset="0" stop-color="#ffffff" stop-opacity="1"/> </linearGradient> <linearGradient x1="0" y1="0" x2="0" y2="1" id="logo-gradient123" gradientTransform="rotate(-180 .5 .5)"> <stop offset="0" stop-color="#420073" stop-opacity="1"/><stop offset="1" stop-color="#AE8BFF" stop-opacity="1"/> </linearGradient><linearGradient x1="0" y1="0" x2="0" y2="1" id="logo-gradient124" gradientTransform="rotate(-180 .5 .5)"> <stop offset="0" stop-color="#FF6E00" stop-opacity="1"/><stop offset="1" stop-color="#FFB115" stop-opacity="1"/> </linearGradient><linearGradient x1="0" y1="0" x2="0" y2="1" id="logo-gradient125" gradientTransform="rotate(-180 .5 .5)"> <stop offset="0" stop-color="#000000" stop-opacity="1"/><stop offset="1" stop-color="#420073" stop-opacity="1"/> </linearGradient><linearGradient x1="0" y1="0" x2="0" y2="1" id="logo-gradient126" gradientTransform="rotate(-180 .5 .5)"> <stop offset="0" stop-color="#FFFFFF" stop-opacity="1"/><stop offset="1" stop-color="#FFFFFF" stop-opacity="1"/> </linearGradient></defs><symbol viewBox="0 0 63 63" id="grunt"><title>grunt</title> <g> <g id="grunt-group-36svg"> <path id="grunt-path-1_28_" d="M32.056,46.929c-8.502,0-15.418-6.921-15.418-15.429c0-8.507,6.916-15.429,15.418-15.429
			S47.474,22.993,47.474,31.5C47.474,40.008,40.558,46.929,32.056,46.929z M32.056,19.073c-6.847,0-12.418,5.575-12.418,12.427
			s5.571,12.427,12.418,12.427c6.848,0,12.418-5.575,12.418-12.427S38.904,19.073,32.056,19.073z"/> <path id="grunt-path-2_28_" d="M48.948,44.351c-2.508,0-4.97-0.67-7.12-1.938c-0.714-0.42-0.952-1.34-0.532-2.055
			c0.421-0.714,1.342-0.952,2.053-0.532c1.691,0.996,3.626,1.523,5.599,1.523c6.094,0,11.052-4.962,11.052-11.06
			c0-6.097-4.958-11.059-11.052-11.059c-2.342,0-4.579,0.724-6.47,2.093c-0.672,0.485-1.609,0.335-2.094-0.337
			c-0.486-0.671-0.336-1.61,0.336-2.096c2.405-1.741,5.25-2.662,8.228-2.662C56.696,16.228,63,22.536,63,30.289
			S56.696,44.351,48.948,44.351z"/> <path id="grunt-path-3_28_" d="M14.74,46.251C6.612,46.251,0,39.634,0,31.5s6.612-14.751,14.74-14.751c3.028,0,5.938,0.912,8.416,2.639
			c0.68,0.473,0.847,1.409,0.374,2.089c-0.475,0.681-1.409,0.847-2.089,0.374c-1.972-1.374-4.289-2.1-6.701-2.1
			C8.266,19.751,3,25.022,3,31.5s5.266,11.749,11.74,11.749c2.479,0,4.848-0.763,6.852-2.208c0.674-0.484,1.61-0.332,2.094,0.341
			c0.485,0.673,0.332,1.611-0.34,2.095C20.828,45.292,17.852,46.251,14.74,46.251z"/> <path id="grunt-path-4_27_" d="M30.399,30.38l6.56-6.149l-3.245,8.389c-0.409,1.057-1.597,1.582-2.653,1.173
			c-1.057-0.409-1.582-1.598-1.173-2.655C30.002,30.843,30.184,30.584,30.399,30.38z"/> <path id="grunt-path-5_25_" d="M48.66,29.703l3.983-5.55l-1.222,6.723c-0.152,0.836-0.953,1.39-1.788,1.238
			c-0.836-0.151-1.39-0.953-1.237-1.789C48.437,30.095,48.533,29.881,48.66,29.703z"/> <path id="grunt-path-6_20_" d="M13.527,32.906l-6.145-3.9l7.195,1.088c0.837,0.127,1.413,0.908,1.287,1.746
			c-0.127,0.837-0.908,1.414-1.745,1.287C13.904,33.095,13.7,33.015,13.527,32.906z"/> </g> </g>                </symbol><symbol viewBox="0 0 48 48" id="icon-whatsapp"><title>icon-whatsapp</title> <g id="icon-whatsapp-surface1"> <path style=" fill:#FFFFFF;" d="M 4.867188 43.304688 L 7.5625 33.46875 C 5.898438 30.589844 5.027344 27.324219 5.027344 23.980469 C 5.03125 13.515625 13.546875 5 24.015625 5 C 29.09375 5.003906 33.859375 6.980469 37.445313 10.566406 C 41.027344 14.152344 43.003906 18.921875 43 23.992188 C 42.996094 34.460938 34.476563 42.972656 24.015625 42.972656 C 24.011719 42.972656 24.015625 42.972656 24.015625 42.972656 L 24.007813 42.972656 C 20.828125 42.972656 17.707031 42.175781 14.933594 40.664063 Z "/> <path style=" fill:#FFFFFF;" d="M 4.867188 43.804688 C 4.734375 43.804688 4.609375 43.75 4.511719 43.65625 C 4.386719 43.527344 4.339844 43.34375 4.386719 43.171875 L 7.023438 33.535156 C 5.390625 30.628906 4.527344 27.328125 4.527344 23.980469 C 4.53125 13.238281 13.273438 4.5 24.015625 4.5 C 29.222656 4.503906 34.117188 6.53125 37.796875 10.214844 C 41.476563 13.894531 43.503906 18.789063 43.5 23.992188 C 43.496094 34.734375 34.753906 43.472656 24.015625 43.472656 C 20.824219 43.472656 17.671875 42.6875 14.871094 41.195313 L 4.996094 43.785156 C 4.953125 43.796875 4.910156 43.804688 4.867188 43.804688 Z "/> <path style=" fill:#CFD8DC;" d="M 24.015625 5 C 29.09375 5.003906 33.859375 6.980469 37.445313 10.566406 C 41.027344 14.152344 43.003906 18.921875 43 23.992188 C 42.996094 34.460938 34.476563 42.972656 24.015625 42.972656 L 24.007813 42.972656 C 20.828125 42.972656 17.707031 42.175781 14.933594 40.664063 L 4.867188 43.304688 L 7.5625 33.46875 C 5.898438 30.589844 5.027344 27.324219 5.027344 23.980469 C 5.03125 13.515625 13.546875 5 24.015625 5 M 24.015625 42.972656 L 24.015625 42.972656 M 24.015625 42.972656 L 24.015625 42.972656 M 24.015625 4 C 12.996094 4 4.03125 12.960938 4.027344 23.980469 C 4.027344 27.347656 4.875 30.664063 6.488281 33.601563 L 3.902344 43.039063 C 3.808594 43.386719 3.90625 43.753906 4.15625 44.007813 C 4.347656 44.199219 4.605469 44.304688 4.867188 44.304688 C 4.953125 44.304688 5.039063 44.292969 5.121094 44.269531 L 14.808594 41.730469 C 17.636719 43.199219 20.808594 43.972656 24.007813 43.976563 C 35.03125 43.976563 43.996094 35.011719 44 23.996094 C 44.003906 18.65625 41.925781 13.636719 38.152344 9.859375 C 34.378906 6.082031 29.355469 4.003906 24.015625 4 Z "/> <path style=" fill:#40C351;" d="M 35.175781 12.832031 C 32.195313 9.851563 28.234375 8.207031 24.019531 8.207031 C 15.316406 8.207031 8.234375 15.28125 8.230469 23.980469 C 8.230469 26.960938 9.066406 29.863281 10.644531 32.375 L 11.019531 32.972656 L 9.425781 38.792969 L 15.398438 37.226563 L 15.976563 37.570313 C 18.398438 39.007813 21.175781 39.769531 24.007813 39.769531 L 24.015625 39.769531 C 32.710938 39.769531 39.789063 32.691406 39.792969 23.992188 C 39.796875 19.777344 38.15625 15.8125 35.175781 12.832031 Z "/> <path style=" fill-rule:evenodd;fill:#FFFFFF;" d="M 19.269531 16.046875 C 18.914063 15.253906 18.539063 15.238281 18.199219 15.226563 C 17.921875 15.214844 17.605469 15.214844 17.289063 15.214844 C 16.976563 15.214844 16.460938 15.332031 16.027344 15.808594 C 15.589844 16.28125 14.363281 17.429688 14.363281 19.765625 C 14.363281 22.097656 16.066406 24.355469 16.300781 24.671875 C 16.539063 24.984375 19.585938 29.929688 24.40625 31.832031 C 28.414063 33.410156 29.230469 33.097656 30.097656 33.019531 C 30.96875 32.9375 32.90625 31.871094 33.300781 30.761719 C 33.695313 29.65625 33.695313 28.707031 33.578125 28.507813 C 33.460938 28.308594 33.144531 28.191406 32.667969 27.953125 C 32.195313 27.714844 29.863281 26.570313 29.425781 26.410156 C 28.992188 26.253906 28.675781 26.175781 28.359375 26.648438 C 28.042969 27.121094 27.132813 28.191406 26.855469 28.507813 C 26.578125 28.824219 26.304688 28.863281 25.828125 28.628906 C 25.355469 28.390625 23.828125 27.890625 22.015625 26.273438 C 20.605469 25.015625 19.652344 23.464844 19.375 22.988281 C 19.097656 22.515625 19.34375 22.257813 19.582031 22.019531 C 19.796875 21.808594 20.058594 21.464844 20.296875 21.1875 C 20.53125 20.910156 20.609375 20.714844 20.769531 20.398438 C 20.925781 20.082031 20.847656 19.804688 20.730469 19.566406 C 20.613281 19.328125 19.691406 16.984375 19.269531 16.046875 Z "/> </g> </symbol><symbol viewBox="0 0 300 300" id="logo"><title>logo</title> <g>  <rect x="0" y="0" width="100%" height="100%" fill="url(#logo-background127)"/> </g> <g transform="matrix(2.5 0 0 2.5 -75 7.499995231628418)"> <g transform="matrix(1 0 0 1 0 0)"> <g> <g is="lm-picture"> <defs><!-- we have to use this <defs> so that Vue know this is SVG --> <filter x="-50%" y="-50%" width="200%" height="200%" id="logo-filter122"> <feMerge> <feMergeNode in="SourceGraphic"/> </feMerge> </filter> </defs> <g filter="url(#logo-filter122)" transform="matrix(0.96 0 0 0.96 42 25.44)"> <g transform="matrix(1 0 0 1 0 0)"> <defs>  </defs> <path fill="url(#logo-gradient123)" d="M93.1 17.95Q89.85 14.65 85.6 12.85 81.2 11 76.4 11 71.3 11 66.65 13.1 62.7 7.25 56.45 3.9 50.05 0.45 42.75 0.45 38.2 0.45 34.25 1.55 30 2.75 26.9 5.15 21.9 9 22.5 16 23.15 23.3 29.9 31.65 37.35 40.85 50.7 49.2 65.7 58.6 86.45 65.75 81 62.2 78.95 60.8 75.6 58.5 76.4 58.5 81.2 58.5 85.6 56.65 89.85 54.8 93.1 51.5 96.35 48.2 98.15 43.95 100 39.55 100 34.75 100 29.95 98.15 25.55 96.35 21.25 93.1 17.95Z"/> </g><g transform="matrix(1 0 0 1 0 0)"> <defs>  </defs> <path fill="url(#logo-gradient124)" d="M4.1 30.8Q0 35.5 0 41.7 0 48.5 4.85 53.35 9.7 58.15 16.5 58.15 45.7 58.35 62.6 58.45 38.8 53.75 24.1 39.1 19.5 34.5 16.35 29.45 15.4 27.9 14.65 26.45L14.15 25.35Q8.1 26.2 4.1 30.8Z"/> </g><g transform="matrix(1 0 0 1 0 0)"> <defs>  </defs> <path fill="url(#logo-gradient125)" d="M12.35 4.3Q10.5 8 12.45 13.55 14.7 20.05 21.9 27.8 17.85 22.45 16.25 17.2 14.85 12.5 15.6 8.7 16.35 5.15 18.7 3.45 21 1.75 24.1 2.6 21.2 0 17.65 0.5 14 1.05 12.35 4.3Z"/> </g><g transform="matrix(1 0 0 1 0 0)"> <defs>  </defs> <path fill="url(#logo-gradient126)" d="M96.05 29.8Q93.9 24.15 89.35 20.4 85.2 16.9 80.1 15.8 75.05 14.7 70.85 16.3 66.4 18 64.35 22.2 72.6 17.45 81.5 19.75 90.1 21.9 96.05 29.8Z"/> </g> </g> </g> </g> </g> </g> </symbol><symbol viewBox="0 0 477.909 477.909" id="mobile-first"><title>mobile-first</title> <g> <g> <g> <path d="M452.872,151.148l-9.629,3.986c-3.252-4.301-7.107-8.144-11.346-11.327l3.991-9.667c1.213-2.924-0.183-6.289-3.104-7.498
				l-15.896-6.59c-2.922-1.208-6.277,0.178-7.491,3.102l-4.036,9.663c-5.246-0.747-10.684-0.766-16.027-0.014l-3.985-9.625
				c-1.214-2.929-4.499-4.343-7.43-3.129l-15.901,6.585c-2.917,1.209-4.251,4.534-3.033,7.465l3.985,9.625
				c-4.303,3.249-8.144,7.11-11.327,11.351l-9.66-3.993c-2.932-1.213-6.292,0.182-7.505,3.108l-6.59,15.898
				c-1.214,2.926,0.177,6.279,3.099,7.49l9.661,4.028c-0.747,5.248-0.756,10.69-0.019,16.029l-9.624,3.986
				c-2.922,1.209-4.34,4.501-3.127,7.433l6.581,15.889c1.213,2.931,4.536,4.254,7.472,3.041l9.628-3.986
				c3.253,4.306,7.099,8.144,11.341,11.332l-3.985,9.666c-1.214,2.931,0.178,6.291,3.104,7.505l15.892,6.59
				c2.931,1.213,6.282-0.178,7.495-3.099l4.032-9.666c5.246,0.747,10.688,0.756,16.031,0.019l3.986,9.629
				c1.209,2.921,4.499,4.335,7.425,3.122l15.896-6.581c2.927-1.213,4.257-4.541,3.043-7.472l-3.985-9.619
				c4.298-3.257,8.139-7.11,11.322-11.35l9.665,3.993c2.927,1.213,6.287-0.182,7.5-3.108l6.59-15.889
				c1.214-2.931-0.173-6.284-3.099-7.495l-9.67-4.032c0.756-5.244,0.765-10.686,0.023-16.029l9.623-3.986
				c2.931-1.213,4.345-4.501,3.132-7.432l-6.581-15.889C459.126,151.262,455.798,149.939,452.872,151.148z M408.371,216.062
				c-14.631,6.06-31.404-0.889-37.463-15.523c-6.066-14.633,0.883-31.402,15.514-37.462c14.636-6.06,31.409,0.889,37.468,15.523
				C429.952,193.229,423.003,210.002,408.371,216.062z"/> <path d="M383.062,274.742v126.702H172.779V81.245h210.282v23.03h23.896V38.233C406.957,17.119,389.838,0,368.725,0H187.117
				c-21.114,0-38.233,17.119-38.233,38.233v401.443c0,21.114,17.119,38.232,38.233,38.232h181.608
				c21.113,0,38.232-17.118,38.232-38.232V274.742H383.062z M258.964,43.012h38.232c2.642,0,4.779,2.143,4.779,4.779
				s-2.138,4.779-4.779,4.779h-38.232c-2.642,0-4.779-2.143-4.779-4.779S256.322,43.012,258.964,43.012z M276.484,455.283
				c-10.558,0-19.116-8.56-19.116-19.116s8.559-19.116,19.116-19.116c10.557,0,19.116,8.56,19.116,19.116
				S287.041,455.283,276.484,455.283z"/> </g> <rect x="10.554" y="122" width="114.698" height="23.896"/> <rect x="39.229" y="169.791" width="86.023" height="23.896"/> <rect x="96.578" y="217.582" width="28.674" height="23.894"/> </g> </g>                </symbol><symbol viewBox="0 0 32 32.000001" id="pixelperfect"><title>pixelperfect</title><g id="pixelperfect-layer1" transform="translate(0,-1020.3622)"><path d="M 3.5 3 A 0.50005 0.50005 0 0 0 3 3.5 L 3 10.5 L 3 28.5 A 0.50005 0.50005 0 0 0 3.5 29 L 10.5 29 L 28.5 29 A 0.50005 0.50005 0 0 0 29 28.5 L 29 21.5 L 29 3.5 A 0.50005 0.50005 0 0 0 28.5 3 L 21.5 3 L 3.5 3 z M 4 4 L 21 4 L 21 10 L 10.5 10 L 4 10 L 4 4 z M 22 4 L 28 4 L 28 21 L 22 21 L 22 10.5 L 22 4 z M 4 11 L 10 11 L 10 21.5 L 10 28 L 4 28 L 4 11 z M 11 11 L 21 11 L 21 21 L 11 21 L 11 11 z M 11 22 L 21.5 22 L 28 22 L 28 28 L 11 28 L 11 22 z " id="pixelperfect-rect4477" style="color:#000000;font-style:normal;font-variant:normal;font-weight:normal;font-stretch:normal;font-size:medium;line-height:normal;font-family:sans-serif;text-indent:0;text-align:start;text-decoration:none;text-decoration-line:none;text-decoration-style:solid;text-decoration-color:#000000;letter-spacing:normal;word-spacing:normal;text-transform:none;direction:ltr;block-progression:tb;writing-mode:lr-tb;baseline-shift:baseline;text-anchor:start;white-space:normal;clip-rule:nonzero;display:inline;overflow:visible;visibility:visible;opacity:1;isolation:auto;mix-blend-mode:normal;color-interpolation:sRGB;color-interpolation-filters:linearRGB;solid-color:#000000;solid-opacity:1;fill:#000000;fill-opacity:1;fill-rule:nonzero;stroke:none;stroke-width:1;stroke-linecap:round;stroke-linejoin:round;stroke-miterlimit:4;stroke-dasharray:none;stroke-dashoffset:0;stroke-opacity:1;color-rendering:auto;image-rendering:auto;shape-rendering:auto;text-rendering:auto;enable-background:accumulate" transform="translate(0,1020.3622)"/></g></symbol><symbol viewBox="0 0 436.125 436.125" id="progressive"><title>progressive</title> <g> <path d="M368.75,315.466H67.371l35.409-69.931h230.563L368.75,315.466z M283.315,146.732H152.802l-37.519,74.115h205.553
		L283.315,146.732z M218.063,2.71L165.31,122.037h105.51L218.063,2.71z M436.125,433.416l-54.869-93.248H54.873L0,433.416H436.125z"/> </g>                </symbol></svg>