<svg style="display: none" xmlns="http://www.w3.org/2000/svg"><symbol viewBox="0 0 1000 1000" id="adaptive"><title>adaptive</title> <metadata> Svg Vector Icons : http://www.onlinewebfonts.com/icon </metadata> <g><g transform="translate(0.000000,511.000000) scale(0.100000,-0.100000)"><path d="M1128,4489.2c-86.5-21.1-157.6-73-205.6-153.7l-44.2-69.2l-5.8-1666l-3.8-1667.9H1080h211.4v1408.5v1408.5l44.2,84.5c23.1,46.1,67.3,101.8,96.1,123c53.8,40.4,59.6,40.4,3057.2,46.1l3003.4,3.8l63.4-42.3c34.6-25,82.6-69.2,103.8-98c40.3-53.8,40.3-67.3,46.1-1504.6l3.8-1448.9h211.4h211.4v1658.3c0,1566.1-1.9,1660.2-36.5,1733.3c-19.2,42.3-53.8,92.2-74.9,111.4c-101.8,92.2,23.1,88.4-3510.7,88.4C2680.7,4502.7,1158.8,4496.9,1128,4489.2z"/><path d="M138.4,586.5C100,548.1,100,523.1,100-1206.3c0-1485.4,3.8-1760.2,26.9-1792.8c26.9-34.6,59.6-36.5,1026.1-36.5c816.7,0,1003.1,3.8,1028,26.9c30.7,23,32.7,172.9,32.7,1800.5V565.4l-42.3,28.8C2133,621.1,2004.3,625,1153,625C201.8,625,174.9,623,138.4,586.5z M1425.9,413.6V356h-269h-269v57.6v57.6h269h269V413.6z M2036.9,159.9c32.7-32.7,32.7-2342.4,0-2375.1c-17.3-17.3-240.2-23.1-883.9-23.1c-830.1,0-860.9,1.9-880.1,36.5c-11.5,25-19.2,430.4-19.2,1181.8c0,1012.7,3.8,1145.2,30.7,1172.1c26.9,26.9,132.6,30.7,880.1,30.7C1798.7,183,2019.6,177.3,2036.9,159.9z M1241.4-2418.8c207.5-86.5,192.2-370.9-25-436.2c-136.4-40.4-290.2,76.9-290.2,222.9c0,80.7,65.3,178.7,140.3,211.4C1145.3-2386.1,1162.6-2386.1,1241.4-2418.8z"/><path d="M6568,571.2c-96.1-3.8-184.5-15.4-197.9-26.9c-21.1-15.4-25-468.9-25-2398.1c0-2188.7,1.9-2380.8,32.7-2403.9c25-23.1,320.9-26.9,1748.6-26.9c1679.4,0,1719.8,0,1746.7,36.5c23.1,32.6,26.9,390.1,26.9,2396.2c0,2119.5-3.8,2361.6-30.7,2388.5c-21.1,23.1-71.1,30.7-186.4,32.7C9104.5,573.1,6708.3,575,6568,571.2z M9584.9,233c36.5-26.9,36.5-71.1,42.3-1806.3l3.8-1781.3l-46.1-46.1l-48-48H8118.7c-1252.9,0-1423.9,3.8-1462.3,30.7l-42.3,28.8v1794.7V200.3l42.3,28.8c38.4,26.9,209.4,30.7,1466.2,30.7C9321.6,259.9,9552.2,256,9584.9,233z M8218.6-3629.4c130.7-55.7,182.5-226.7,105.7-351.7c-126.8-211.4-443.9-126.8-449.7,121.1c-1.9,98,48,174.9,144.1,222.9C8097.6-3594.8,8132.2-3594.8,8218.6-3629.4z"/><path d="M2502-797v-538h1758.2h1758.2v538v538H4260.2H2502V-797z"/><path d="M3635.7-1936.5v-313.2l-299.8-1.9c-167.2,0-307.5-9.6-319-21.1c-9.6-9.6-15.4-51.9-11.5-92.2c3.8-59.6,15.4-76.9,53.8-86.5c63.4-17.3,2818.9-17.3,2882.3,0c40.4,11.5,50,26.9,53.8,94.1c7.7,105.7-11.5,111.5-355.5,107.6l-274.8-3.8v315.1v315.1h-864.7h-864.7V-1936.5z"/></g></g> </symbol><symbol viewBox="0 0 16 16" id="back-arrow_icon-icons"><title>back-arrow_icon-icons</title> <g> <path style="fill:#eeeeee;" d="M8,0C3.5,0,0,3.5,0,8s3.5,8,8,8s8-3.5,8-8S12.5,0,8,0z M13,10H7v2L2,8l5-4v2h6V10z"/> </g>                </symbol><symbol viewBox="0 0 64 64" id="cross"><title>cross</title><g id="cross-Glyph_copy_2"><path d="M61,6.167H3c-1.65,0-3,1.35-3,3v45.667c0,1.65,1.35,3,3,3h58c1.65,0,3-1.35,3-3V9.167C64,7.517,62.65,6.167,61,6.167z    M25.253,13.042h31.863v5.322H21.777L25.253,13.042z M37.226,30.513v-3.869l13.851,5.99v3.304l-13.851,6.032v-3.897l9.666-3.8   L37.226,30.513z M35.945,23.724l-5.053,20.874h-2.849l4.997-20.874H35.945z M26.761,38.058v3.897l-13.838-6.018v-3.332l13.838-5.99   v3.925l-9.652,3.69L26.761,38.058z M17.27,13.985c0.91,0,1.648,0.737,1.648,1.646c0,0.909-0.738,1.646-1.648,1.646   s-1.648-0.737-1.648-1.646C15.621,14.722,16.359,13.985,17.27,13.985z M12.901,13.985c0.91,0,1.648,0.737,1.648,1.646   c0,0.909-0.738,1.646-1.648,1.646c-0.91,0-1.648-0.737-1.648-1.646C11.253,14.722,11.991,13.985,12.901,13.985z M8.532,13.985   c0.91,0,1.648,0.737,1.648,1.646c0,0.909-0.738,1.646-1.648,1.646s-1.648-0.737-1.648-1.646   C6.884,14.722,7.622,13.985,8.532,13.985z M2.242,54.074l4.525-3.437h7.954l-4.51,3.437H2.242z M13.674,54.074l4.525-3.437H45.8   l4.525,3.437H13.674z M53.788,54.074l-4.51-3.437h7.954l4.526,3.437H53.788z"/></g></symbol><symbol viewBox="0 0 30 30" id="css"><title>css</title><g><path d="M2.071,0l2.4,26.963L15.233,30l10.839-3.037L28.471,0H2.071z M21.065,21.121l-7.537,3.129l-6.543-3.129l0.666-4.17h2.783   l-0.271,1.723l3.957,1.885l4.555-1.885l0.639-3.975H7.987l0.545-3.48h11.334l0.355-2.238H8.897L9.45,5.5h14.108L21.065,21.121z"/></g></symbol><symbol viewBox="0 0 512 512" id="github"><title>github</title><g id="github-Layer_1_1_"><circle cx="256" cy="256" fill="transparent" r="238.2"/></g><g id="github-Layer_2_1_"><g><path d="M289.1,334.2c1.4,1.2,0.8,2.8,0.8,4.2    c0,19.3,0,38.6,0,57.9c0,0.4,0.1,0.8,0.1,1.2c-23,0-46.2,0-69.2,0c0.3-11.4,0.3-22.8,0-34.1c2.1,0.1,1.1,1.7,1.1,2.5    c0.1,9.1,0.1,18.3,0,27.4c-0.1,2.6,0.8,3.3,3.3,3.3c20.1-0.1,40.2-0.1,60.3,0c2.9,0,3.3-1,3.3-3.5c-0.1-16.5-0.1-33-0.1-49.6    C289,340.4,289.1,337.3,289.1,334.2z" fill="none" stroke="#000" stroke-miterlimit="10" stroke-width="10"/><path d="M289.1,334.2c-0.1,3.1-0.1,6.3-0.1,9.4    c0,16.5-0.1,33,0.1,49.6c0,2.5-0.5,3.6-3.3,3.5c-20.1-0.1-40.2-0.1-60.3,0c-2.5,0-3.4-0.7-3.3-3.3c0.1-9.1,0.1-18.3,0-27.4    c0-0.8,1-2.5-1.1-2.5c-0.5,0-0.8,0.1-1.3,0.1c-0.8-0.4-1.6-0.3-2.2,0.6c-8.1,0.8-16.3,1.5-24.3-0.5c-14.2-3.6-24.4-12-30.7-25.4    c-4-8.7-9.4-16.8-15.6-24.3c-2-2.4-5.1-3.3-7.2-5.6c-0.8-0.9-2.1-1.6-1.7-2.9c0.4-1.5,2-1.4,3.3-1.6c13.1-1.1,22.3,5.1,28.8,15.8    c5.9,9.8,13.7,17,24.9,20c8,2.1,15.9,1.6,23.8-0.8c1.8-0.6,2.8-1.4,3-3.6c0.6-8.1,2.3-15.9,7.9-22.8c-2.2-0.4-3.9-0.8-5.6-1    c-13.8-2.1-26.7-6.9-37.9-15.4c-12.5-9.5-20.2-22.3-22.7-37.9c-2.1-13.6-1.3-27.4,0.5-41c1.4-10.5,4.3-20.5,11.9-28.3    c2.7-2.7,2.9-5,1.7-8.4c-4-11.6-2.9-23.3,0.7-34.9c0.7-2.2,1.6-2.8,4-2.2c8.8,2.2,15.6,7.3,21.7,13.6c3,3,5.6,6.4,8,9.8    c0.7,1,1.2,1.5,2.5,0.5c4.7-3.7,10.4-4.9,16.1-5.7c16.5-2.4,33-2.4,49.4-0.1c5.5,0.8,11,1.8,15.6,5.2c2.2,1.6,3,0.7,4.2-1    c4.4-6.4,9.7-11.9,16-16.4c4-2.9,8.4-4.8,13.3-6c2.1-0.5,2.9,0.1,3.6,2c4.4,12.5,5.1,25.1,0.1,37.6c-0.6,1.6-1,2.7,0.5,4    c8,7.6,11.8,17.2,13.4,27.9c1.9,12.9,3,25.9,1.5,39c-2.5,22.1-13.7,38.1-33.2,48.6c-0.7-0.1-1.3,0.1-1.6,0.8    c-0.5,0.3-1,0.5-1.5,0.7c-1.7,0.1-3.1,0.8-4.3,1.9c-0.5,0.2-1.1,0.3-1.6,0.5c-0.8-0.2-1.3,0.1-1.6,0.8c-0.3,0.1-0.7,0.2-1,0.3    c-2.6,0.4-5.2,0.7-7.4,2.3c-0.3,0.1-0.7,0.1-1,0.2c-1.9-0.1-3.8,0.1-5.4,1.2c-1.4,0.2-2.8,0.4-4.2,0.6c-1.1,0.1-2.4-0.1-3.3,0.3    c-1,0.5-0.6,1.1,0.3,1.4l0.1,0.1c0.1,0.9,0.5,1.6,1.4,1.8c0.5,1,1,2.1,1.6,3.1c0.1,1.4,0.4,2.7,1.6,3.6c0.1,0.6,0.3,1.1,0.4,1.7    c0.3,1.8,0.3,3.7,1.4,5.3c0.1,0.4,0.1,0.8,0.2,1.1c-0.4,0.8-0.2,1.5,0.4,2.2C289.1,332.8,289.1,333.5,289.1,334.2z" fill="none" stroke="#000" stroke-miterlimit="10" stroke-width="10"/><path d="M295.8,309.7c2.2-1.6,4.8-1.9,7.4-2.3    C300.8,308.4,298.6,310,295.8,309.7z" fill="none" stroke="#000" stroke-miterlimit="10" stroke-width="10"/><path d="M289.3,311.2c1.6-1.2,3.5-1.2,5.4-1.2    C293.2,311.2,291.3,311.4,289.3,311.2z" fill="none" stroke="#000" stroke-miterlimit="10" stroke-width="10"/><path d="M288.4,329c-1.1-1.6-1.1-3.5-1.4-5.3    C288.4,325.2,288.9,327,288.4,329z" fill="none" stroke="#000" stroke-miterlimit="10" stroke-width="10"/><path d="M307.5,305.7c1.2-1.1,2.6-1.9,4.3-1.9    C310.7,305.1,309.3,305.9,307.5,305.7z" fill="none" stroke="#000" stroke-miterlimit="10" stroke-width="10"/><path d="M282.1,313.5c-1-0.3-1.4-0.9-0.3-1.4    c1-0.4,2.2-0.3,3.3-0.3C284.4,312.9,282.5,311.9,282.1,313.5z" fill="none" stroke="#000" stroke-miterlimit="10" stroke-width="10"/><path d="M286.6,322c-1.2-0.9-1.4-2.2-1.6-3.6    C286.4,319.3,286.5,320.6,286.6,322z" fill="none" stroke="#000" stroke-miterlimit="10" stroke-width="10"/><path d="M289,332.3c-0.6-0.7-0.7-1.3-0.4-2.2    C289.4,330.7,289.6,331.4,289,332.3z" fill="none" stroke="#000" stroke-miterlimit="10" stroke-width="10"/><path d="M217.5,364.1c0.5-0.9,1.2-0.9,2.2-0.6    C219.1,364.1,218.4,364.5,217.5,364.1z" fill="none" stroke="#000" stroke-miterlimit="10" stroke-width="10"/><path d="M283.6,315.3c-0.9-0.3-1.3-0.9-1.4-1.8    C283.2,313.7,283.6,314.4,283.6,315.3z" fill="none" stroke="#000" stroke-miterlimit="10" stroke-width="10"/><path d="M313.4,303.1c0.3-0.7,0.9-0.9,1.6-0.8    C314.8,303.1,314.3,303.6,313.4,303.1z" fill="none" stroke="#000" stroke-miterlimit="10" stroke-width="10"/><path d="M304.3,307.1c0.3-0.7,0.8-1,1.6-0.8    C305.6,307.1,305.2,307.5,304.3,307.1z" fill="none" stroke="#000" stroke-miterlimit="10" stroke-width="10"/></g></g></symbol><symbol viewBox="0 0 63 63" id="grunt"><title>grunt</title> <g> <g id="grunt-group-36svg"> <path id="grunt-path-1_28_" d="M32.056,46.929c-8.502,0-15.418-6.921-15.418-15.429c0-8.507,6.916-15.429,15.418-15.429
			S47.474,22.993,47.474,31.5C47.474,40.008,40.558,46.929,32.056,46.929z M32.056,19.073c-6.847,0-12.418,5.575-12.418,12.427
			s5.571,12.427,12.418,12.427c6.848,0,12.418-5.575,12.418-12.427S38.904,19.073,32.056,19.073z"/> <path id="grunt-path-2_28_" d="M48.948,44.351c-2.508,0-4.97-0.67-7.12-1.938c-0.714-0.42-0.952-1.34-0.532-2.055
			c0.421-0.714,1.342-0.952,2.053-0.532c1.691,0.996,3.626,1.523,5.599,1.523c6.094,0,11.052-4.962,11.052-11.06
			c0-6.097-4.958-11.059-11.052-11.059c-2.342,0-4.579,0.724-6.47,2.093c-0.672,0.485-1.609,0.335-2.094-0.337
			c-0.486-0.671-0.336-1.61,0.336-2.096c2.405-1.741,5.25-2.662,8.228-2.662C56.696,16.228,63,22.536,63,30.289
			S56.696,44.351,48.948,44.351z"/> <path id="grunt-path-3_28_" d="M14.74,46.251C6.612,46.251,0,39.634,0,31.5s6.612-14.751,14.74-14.751c3.028,0,5.938,0.912,8.416,2.639
			c0.68,0.473,0.847,1.409,0.374,2.089c-0.475,0.681-1.409,0.847-2.089,0.374c-1.972-1.374-4.289-2.1-6.701-2.1
			C8.266,19.751,3,25.022,3,31.5s5.266,11.749,11.74,11.749c2.479,0,4.848-0.763,6.852-2.208c0.674-0.484,1.61-0.332,2.094,0.341
			c0.485,0.673,0.332,1.611-0.34,2.095C20.828,45.292,17.852,46.251,14.74,46.251z"/> <path id="grunt-path-4_27_" d="M30.399,30.38l6.56-6.149l-3.245,8.389c-0.409,1.057-1.597,1.582-2.653,1.173
			c-1.057-0.409-1.582-1.598-1.173-2.655C30.002,30.843,30.184,30.584,30.399,30.38z"/> <path id="grunt-path-5_25_" d="M48.66,29.703l3.983-5.55l-1.222,6.723c-0.152,0.836-0.953,1.39-1.788,1.238
			c-0.836-0.151-1.39-0.953-1.237-1.789C48.437,30.095,48.533,29.881,48.66,29.703z"/> <path id="grunt-path-6_20_" d="M13.527,32.906l-6.145-3.9l7.195,1.088c0.837,0.127,1.413,0.908,1.287,1.746
			c-0.127,0.837-0.908,1.414-1.745,1.287C13.904,33.095,13.7,33.015,13.527,32.906z"/> </g> </g>                </symbol><symbol viewBox="0 0 30 30" id="html"><title>html</title><g><g><path d="M2.072,0l2.399,26.963L15.234,30l10.837-3.037L28.472,0H2.072z M23.259,8.795H10.622l0.281,3.393h12.074L22.04,22.389    l-6.73,1.855v0.02h-0.075l-6.787-1.875l-0.413-5.213h3.281l0.244,2.625l3.675,0.994l3.692-0.994l0.414-4.275H7.866L6.984,5.514    H23.56L23.259,8.795z"/></g></g></symbol><symbol viewBox="0 0 48 48" id="icon-whatsapp"><title>icon-whatsapp</title> <g id="icon-whatsapp-surface1"> <path style=" fill:#FFFFFF;" d="M 4.867188 43.304688 L 7.5625 33.46875 C 5.898438 30.589844 5.027344 27.324219 5.027344 23.980469 C 5.03125 13.515625 13.546875 5 24.015625 5 C 29.09375 5.003906 33.859375 6.980469 37.445313 10.566406 C 41.027344 14.152344 43.003906 18.921875 43 23.992188 C 42.996094 34.460938 34.476563 42.972656 24.015625 42.972656 C 24.011719 42.972656 24.015625 42.972656 24.015625 42.972656 L 24.007813 42.972656 C 20.828125 42.972656 17.707031 42.175781 14.933594 40.664063 Z "/> <path style=" fill:#FFFFFF;" d="M 4.867188 43.804688 C 4.734375 43.804688 4.609375 43.75 4.511719 43.65625 C 4.386719 43.527344 4.339844 43.34375 4.386719 43.171875 L 7.023438 33.535156 C 5.390625 30.628906 4.527344 27.328125 4.527344 23.980469 C 4.53125 13.238281 13.273438 4.5 24.015625 4.5 C 29.222656 4.503906 34.117188 6.53125 37.796875 10.214844 C 41.476563 13.894531 43.503906 18.789063 43.5 23.992188 C 43.496094 34.734375 34.753906 43.472656 24.015625 43.472656 C 20.824219 43.472656 17.671875 42.6875 14.871094 41.195313 L 4.996094 43.785156 C 4.953125 43.796875 4.910156 43.804688 4.867188 43.804688 Z "/> <path style=" fill:#CFD8DC;" d="M 24.015625 5 C 29.09375 5.003906 33.859375 6.980469 37.445313 10.566406 C 41.027344 14.152344 43.003906 18.921875 43 23.992188 C 42.996094 34.460938 34.476563 42.972656 24.015625 42.972656 L 24.007813 42.972656 C 20.828125 42.972656 17.707031 42.175781 14.933594 40.664063 L 4.867188 43.304688 L 7.5625 33.46875 C 5.898438 30.589844 5.027344 27.324219 5.027344 23.980469 C 5.03125 13.515625 13.546875 5 24.015625 5 M 24.015625 42.972656 L 24.015625 42.972656 M 24.015625 42.972656 L 24.015625 42.972656 M 24.015625 4 C 12.996094 4 4.03125 12.960938 4.027344 23.980469 C 4.027344 27.347656 4.875 30.664063 6.488281 33.601563 L 3.902344 43.039063 C 3.808594 43.386719 3.90625 43.753906 4.15625 44.007813 C 4.347656 44.199219 4.605469 44.304688 4.867188 44.304688 C 4.953125 44.304688 5.039063 44.292969 5.121094 44.269531 L 14.808594 41.730469 C 17.636719 43.199219 20.808594 43.972656 24.007813 43.976563 C 35.03125 43.976563 43.996094 35.011719 44 23.996094 C 44.003906 18.65625 41.925781 13.636719 38.152344 9.859375 C 34.378906 6.082031 29.355469 4.003906 24.015625 4 Z "/> <path style=" fill:#40C351;" d="M 35.175781 12.832031 C 32.195313 9.851563 28.234375 8.207031 24.019531 8.207031 C 15.316406 8.207031 8.234375 15.28125 8.230469 23.980469 C 8.230469 26.960938 9.066406 29.863281 10.644531 32.375 L 11.019531 32.972656 L 9.425781 38.792969 L 15.398438 37.226563 L 15.976563 37.570313 C 18.398438 39.007813 21.175781 39.769531 24.007813 39.769531 L 24.015625 39.769531 C 32.710938 39.769531 39.789063 32.691406 39.792969 23.992188 C 39.796875 19.777344 38.15625 15.8125 35.175781 12.832031 Z "/> <path style=" fill-rule:evenodd;fill:#FFFFFF;" d="M 19.269531 16.046875 C 18.914063 15.253906 18.539063 15.238281 18.199219 15.226563 C 17.921875 15.214844 17.605469 15.214844 17.289063 15.214844 C 16.976563 15.214844 16.460938 15.332031 16.027344 15.808594 C 15.589844 16.28125 14.363281 17.429688 14.363281 19.765625 C 14.363281 22.097656 16.066406 24.355469 16.300781 24.671875 C 16.539063 24.984375 19.585938 29.929688 24.40625 31.832031 C 28.414063 33.410156 29.230469 33.097656 30.097656 33.019531 C 30.96875 32.9375 32.90625 31.871094 33.300781 30.761719 C 33.695313 29.65625 33.695313 28.707031 33.578125 28.507813 C 33.460938 28.308594 33.144531 28.191406 32.667969 27.953125 C 32.195313 27.714844 29.863281 26.570313 29.425781 26.410156 C 28.992188 26.253906 28.675781 26.175781 28.359375 26.648438 C 28.042969 27.121094 27.132813 28.191406 26.855469 28.507813 C 26.578125 28.824219 26.304688 28.863281 25.828125 28.628906 C 25.355469 28.390625 23.828125 27.890625 22.015625 26.273438 C 20.605469 25.015625 19.652344 23.464844 19.375 22.988281 C 19.097656 22.515625 19.34375 22.257813 19.582031 22.019531 C 19.796875 21.808594 20.058594 21.464844 20.296875 21.1875 C 20.53125 20.910156 20.609375 20.714844 20.769531 20.398438 C 20.925781 20.082031 20.847656 19.804688 20.730469 19.566406 C 20.613281 19.328125 19.691406 16.984375 19.269531 16.046875 Z "/> </g> </symbol><symbol viewBox="0 0 512 512" id="js"><title>js</title><g id="js-XMLID_4926_"><g id="js-XMLID_4921_"><g id="js-XMLID_4931_"><polyline id="js-XMLID_4936_" points="-6887,-3307.9 -6982.9,-3307.9 -6982.9,-3404.3    "/><g id="js-XMLID_4932_"><path d="M-6879.7-2911.5h-388.1v-500h295.7l92.4,96.7V-2911.5z M-7253.3-2926.1h359V-3309l-84.1-88h-274.9      V-2926.1z" id="js-XMLID_4933_"/></g></g><g id="js-XMLID_4927_"><path d="M-6921.2-2953.1h-305.3v-272.3h305.3V-2953.1z M-7211.8-2967.7h276.1v-243.2h-276.1V-2967.7z" id="js-XMLID_4928_"/></g><g id="js-XMLID_4924_"><rect height="60.8" id="js-XMLID_4925_" transform="matrix(0.7516 -0.6596 0.6596 0.7516 398.034 -5322.5303)" width="14.5" x="-6875.1" y="-3220.1"/></g><g id="js-XMLID_4922_"><rect height="14.5" id="js-XMLID_4923_" transform="matrix(0.6596 -0.7516 0.7516 0.6596 -80.4516 -6557.1328)" width="60.8" x="-7310.2" y="-3197"/></g></g><path d="M-7305.3-3171.7v164.9h463v-164.9H-7305.3z M-7143.6-3069.4c2.7,3.6,6.3,5.3,10.9,5.3   c4.5,0,7.9-1.2,10.3-3.5c2.3-2.4,3.5-5.8,3.5-10.2h10.6l0.1,0.3c0.1,6.7-2,12-6.5,16.1c-4.4,4.1-10.5,6.1-18,6.1   c-7.7,0-13.9-2.6-18.7-7.8c-4.8-5.2-7.2-11.8-7.2-19.9v-12.6c0-8,2.4-14.7,7.1-19.9s10.9-7.8,18.5-7.8c7.8,0,13.9,2,18.4,5.9   c4.5,4,6.6,9.4,6.5,16.3l-0.1,0.3h-10.7c0-4.4-1.2-7.8-3.6-10.1c-2.4-2.3-5.9-3.5-10.5-3.5c-4.5,0-8,1.8-10.6,5.3   c-2.6,3.6-3.9,8-3.9,13.5v12.7C-7147.5-3077.5-7146.2-3073-7143.6-3069.4z M-7055.4-3060.2c-4.3,3.3-9.9,4.9-16.9,4.9   c-6.7,0-12.6-1.8-17.6-5.4c-5-3.6-7.4-8.6-7.3-15.1l0.1-0.3h10.6c0,4,1.4,6.9,4.1,9c2.7,2,6.1,3,10,3c3.9,0,6.9-0.8,9.1-2.5   c2.2-1.6,3.2-3.9,3.2-6.7c0-2.8-1-5-2.9-6.8c-2-1.8-5.4-3.3-10.4-4.7c-7.1-2-12.6-4.5-16.4-7.7c-3.9-3.2-5.8-7.4-5.8-12.5   c0-5.3,2.1-9.7,6.4-13.2c4.2-3.4,9.7-5.2,16.3-5.2c7.1,0,12.8,1.9,17.1,5.7c4.3,3.8,6.3,8.6,6.2,14.2l-0.1,0.3h-10.6   c0-3.5-1.2-6.2-3.5-8.3c-2.3-2.1-5.4-3.1-9.2-3.1c-3.7,0-6.6,0.9-8.6,2.6c-2,1.8-3,4-3,6.8c0,2.5,1.1,4.6,3.3,6.3   c2.2,1.6,5.9,3.2,11,4.7c6.9,1.9,12.2,4.6,15.8,7.9c3.6,3.3,5.4,7.6,5.4,12.8C-7048.9-3067.8-7051.1-3063.5-7055.4-3060.2z    M-6995.5-3060.2c-4.3,3.3-9.9,4.9-16.9,4.9c-6.7,0-12.6-1.8-17.6-5.4c-5-3.6-7.4-8.6-7.3-15.1l0.1-0.3h10.6c0,4,1.4,6.9,4.1,9   c2.7,2,6.1,3,10,3c3.9,0,6.9-0.8,9.1-2.5c2.2-1.6,3.2-3.9,3.2-6.7c0-2.8-1-5-2.9-6.8c-2-1.8-5.4-3.3-10.4-4.7   c-7.1-2-12.6-4.5-16.4-7.7c-3.9-3.2-5.8-7.4-5.8-12.5c0-5.3,2.1-9.7,6.4-13.2c4.2-3.4,9.7-5.2,16.3-5.2c7.1,0,12.8,1.9,17.1,5.7   c4.3,3.8,6.3,8.6,6.2,14.2l-0.1,0.3h-10.6c0-3.5-1.2-6.2-3.5-8.3c-2.3-2.1-5.4-3.1-9.2-3.1c-3.7,0-6.6,0.9-8.6,2.6   c-2,1.8-3,4-3,6.8c0,2.5,1.1,4.6,3.3,6.3c2.2,1.6,5.9,3.2,11,4.7c6.9,1.9,12.2,4.6,15.8,7.9s5.4,7.6,5.4,12.8   C-6989-3067.8-6991.2-3063.5-6995.5-3060.2z" id="js-XMLID_7465_"/></g><g id="js-XMLID_7432_"><g id="js-XMLID_6249_"><polygon id="js-XMLID_6265_" points="154.1,236.7 98.1,187.7 42.1,236.7 42.1,6 154.1,6   "/><g id="js-XMLID_6263_"><path d="M462.5,123.2h-56.9c-22.3,0-40.4-18.1-40.4-40.4V25.8h14.8v56.9c0,14.1,11.5,25.6,25.6,25.6h56.9V123.2     z" id="js-XMLID_6264_"/></g><g id="js-XMLID_6261_"><path d="M429.5,506H131.1c-22.3,0-40.4-18.1-40.4-40.4V213.8h14.8v251.8c0,14.1,11.5,25.6,25.6,25.6h298.3     c14.1,0,25.6-11.5,25.6-25.6V118.8l-81.9-85.5H169.8V18.4h209.7l90.3,94.4v352.8C469.9,487.9,451.8,506,429.5,506z" id="js-XMLID_6262_"/></g><g id="js-XMLID_6250_"><g id="js-XMLID_6259_"><rect height="14.8" id="js-XMLID_6260_" width="287.8" x="135.9" y="288.1"/></g><g id="js-XMLID_6257_"><rect height="14.8" id="js-XMLID_6258_" width="204.8" x="135.9" y="326.2"/></g><g id="js-XMLID_6255_"><rect height="14.8" id="js-XMLID_6256_" width="134.9" x="135.9" y="364.2"/></g><g id="js-XMLID_6253_"><rect height="14.8" id="js-XMLID_6254_" width="277.4" x="135.9" y="402.3"/></g><g id="js-XMLID_6251_"><rect height="14.8" id="js-XMLID_6252_" width="254.8" x="135.9" y="440.4"/></g></g></g><g id="js-XMLID_8506_"><path d="M242.2,187.5h11.1v46.9c0,6.4-2,11.6-5.9,15.4c-3.9,3.8-9,5.7-15.2,5.7c-6.6,0-11.8-1.7-15.7-5.1    c-3.9-3.4-5.7-8.3-5.6-14.8l0.1-0.3h10.8c0,3.8,0.9,6.6,2.7,8.4c1.8,1.8,4.4,2.7,7.6,2.7c2.9,0,5.3-1.1,7.2-3.3    c1.9-2.2,2.8-5.2,2.8-8.8V187.5z" id="js-XMLID_8509_"/><path d="M305.4,237.3c0-2.8-1-5.1-3-6.9c-2-1.8-5.5-3.4-10.5-4.8c-7.2-2-12.8-4.6-16.7-7.8    c-3.9-3.2-5.9-7.5-5.9-12.7c0-5.4,2.1-9.9,6.4-13.4c4.3-3.5,9.8-5.2,16.6-5.2c7.2,0,13,1.9,17.4,5.8c4.3,3.9,6.4,8.7,6.3,14.4    L316,207h-10.8c0-3.5-1.2-6.3-3.5-8.4c-2.3-2.1-5.5-3.1-9.4-3.1c-3.8,0-6.7,0.9-8.7,2.7c-2,1.8-3.1,4.1-3.1,6.9    c0,2.6,1.1,4.7,3.4,6.4c2.2,1.7,6,3.3,11.1,4.8c7,2,12.4,4.6,16.1,8c3.7,3.4,5.5,7.7,5.5,13c0,5.6-2.2,10-6.5,13.3    c-4.4,3.3-10.1,5-17.2,5c-6.8,0-12.8-1.8-17.8-5.4c-5.1-3.6-7.5-8.7-7.4-15.3l0.1-0.3h10.8c0,4,1.4,7.1,4.2,9.1    c2.8,2,6.2,3.1,10.2,3.1c4,0,7-0.8,9.2-2.5C304.3,242.4,305.4,240.1,305.4,237.3z" id="js-XMLID_8507_"/></g></g></symbol><symbol viewBox="0 0 16 16" id="less"><title>less</title> <path fill="#000" d="M15.2 6l-1.1-0.2c-0.1-0.2-0.1-0.4-0.2-0.6l0.6-0.9 0.5-0.7-2.6-2.6-0.7 0.5-0.9 0.6c-0.2-0.1-0.4-0.1-0.6-0.2l-0.2-1.1-0.2-0.8h-3.6l-0.2 0.8-0.2 1.1c-0.2 0.1-0.4 0.1-0.6 0.2l-0.9-0.6-0.7-0.4-2.5 2.5 0.5 0.7 0.6 0.9c-0.2 0.2-0.2 0.4-0.3 0.6l-1.1 0.2-0.8 0.2v3.6l0.8 0.2 1.1 0.2c0.1 0.2 0.1 0.4 0.2 0.6l-0.6 0.9-0.5 0.7 2.6 2.6 0.7-0.5 0.9-0.6c0.2 0.1 0.4 0.1 0.6 0.2l0.2 1.1 0.2 0.8h3.6l0.2-0.8 0.2-1.1c0.2-0.1 0.4-0.1 0.6-0.2l0.9 0.6 0.7 0.5 2.6-2.6-0.5-0.7-0.6-0.9c0.1-0.2 0.2-0.4 0.2-0.6l1.1-0.2 0.8-0.2v-3.6l-0.8-0.2zM15 9l-1.7 0.3c-0.1 0.5-0.3 1-0.6 1.5l0.9 1.4-1.4 1.4-1.4-0.9c-0.5 0.3-1 0.5-1.5 0.6l-0.3 1.7h-2l-0.3-1.7c-0.5-0.1-1-0.3-1.5-0.6l-1.4 0.9-1.4-1.4 0.9-1.4c-0.3-0.5-0.5-1-0.6-1.5l-1.7-0.3v-2l1.7-0.3c0.1-0.5 0.3-1 0.6-1.5l-1-1.4 1.4-1.4 1.4 0.9c0.5-0.3 1-0.5 1.5-0.6l0.4-1.7h2l0.3 1.7c0.5 0.1 1 0.3 1.5 0.6l1.4-0.9 1.4 1.4-0.9 1.4c0.3 0.5 0.5 1 0.6 1.5l1.7 0.3v2z"/> <path fill="#000" d="M8 4.5c-1.9 0-3.5 1.6-3.5 3.5s1.6 3.5 3.5 3.5 3.5-1.6 3.5-3.5c0-1.9-1.6-3.5-3.5-3.5zM8 10.5c-1.4 0-2.5-1.1-2.5-2.5s1.1-2.5 2.5-2.5 2.5 1.1 2.5 2.5c0 1.4-1.1 2.5-2.5 2.5z"/> </symbol><symbol viewBox="0 0 477.909 477.909" id="mobile-first"><title>mobile-first</title> <g> <g> <g> <path d="M452.872,151.148l-9.629,3.986c-3.252-4.301-7.107-8.144-11.346-11.327l3.991-9.667c1.213-2.924-0.183-6.289-3.104-7.498
				l-15.896-6.59c-2.922-1.208-6.277,0.178-7.491,3.102l-4.036,9.663c-5.246-0.747-10.684-0.766-16.027-0.014l-3.985-9.625
				c-1.214-2.929-4.499-4.343-7.43-3.129l-15.901,6.585c-2.917,1.209-4.251,4.534-3.033,7.465l3.985,9.625
				c-4.303,3.249-8.144,7.11-11.327,11.351l-9.66-3.993c-2.932-1.213-6.292,0.182-7.505,3.108l-6.59,15.898
				c-1.214,2.926,0.177,6.279,3.099,7.49l9.661,4.028c-0.747,5.248-0.756,10.69-0.019,16.029l-9.624,3.986
				c-2.922,1.209-4.34,4.501-3.127,7.433l6.581,15.889c1.213,2.931,4.536,4.254,7.472,3.041l9.628-3.986
				c3.253,4.306,7.099,8.144,11.341,11.332l-3.985,9.666c-1.214,2.931,0.178,6.291,3.104,7.505l15.892,6.59
				c2.931,1.213,6.282-0.178,7.495-3.099l4.032-9.666c5.246,0.747,10.688,0.756,16.031,0.019l3.986,9.629
				c1.209,2.921,4.499,4.335,7.425,3.122l15.896-6.581c2.927-1.213,4.257-4.541,3.043-7.472l-3.985-9.619
				c4.298-3.257,8.139-7.11,11.322-11.35l9.665,3.993c2.927,1.213,6.287-0.182,7.5-3.108l6.59-15.889
				c1.214-2.931-0.173-6.284-3.099-7.495l-9.67-4.032c0.756-5.244,0.765-10.686,0.023-16.029l9.623-3.986
				c2.931-1.213,4.345-4.501,3.132-7.432l-6.581-15.889C459.126,151.262,455.798,149.939,452.872,151.148z M408.371,216.062
				c-14.631,6.06-31.404-0.889-37.463-15.523c-6.066-14.633,0.883-31.402,15.514-37.462c14.636-6.06,31.409,0.889,37.468,15.523
				C429.952,193.229,423.003,210.002,408.371,216.062z"/> <path d="M383.062,274.742v126.702H172.779V81.245h210.282v23.03h23.896V38.233C406.957,17.119,389.838,0,368.725,0H187.117
				c-21.114,0-38.233,17.119-38.233,38.233v401.443c0,21.114,17.119,38.232,38.233,38.232h181.608
				c21.113,0,38.232-17.118,38.232-38.232V274.742H383.062z M258.964,43.012h38.232c2.642,0,4.779,2.143,4.779,4.779
				s-2.138,4.779-4.779,4.779h-38.232c-2.642,0-4.779-2.143-4.779-4.779S256.322,43.012,258.964,43.012z M276.484,455.283
				c-10.558,0-19.116-8.56-19.116-19.116s8.559-19.116,19.116-19.116c10.557,0,19.116,8.56,19.116,19.116
				S287.041,455.283,276.484,455.283z"/> </g> <rect x="10.554" y="122" width="114.698" height="23.896"/> <rect x="39.229" y="169.791" width="86.023" height="23.896"/> <rect x="96.578" y="217.582" width="28.674" height="23.894"/> </g> </g>                </symbol><symbol viewBox="0 0 32 32.000001" id="pixelperfect"><title>pixelperfect</title><g id="pixelperfect-layer1" transform="translate(0,-1020.3622)"><path d="M 3.5 3 A 0.50005 0.50005 0 0 0 3 3.5 L 3 10.5 L 3 28.5 A 0.50005 0.50005 0 0 0 3.5 29 L 10.5 29 L 28.5 29 A 0.50005 0.50005 0 0 0 29 28.5 L 29 21.5 L 29 3.5 A 0.50005 0.50005 0 0 0 28.5 3 L 21.5 3 L 3.5 3 z M 4 4 L 21 4 L 21 10 L 10.5 10 L 4 10 L 4 4 z M 22 4 L 28 4 L 28 21 L 22 21 L 22 10.5 L 22 4 z M 4 11 L 10 11 L 10 21.5 L 10 28 L 4 28 L 4 11 z M 11 11 L 21 11 L 21 21 L 11 21 L 11 11 z M 11 22 L 21.5 22 L 28 22 L 28 28 L 11 28 L 11 22 z " id="pixelperfect-rect4477" style="color:#000000;font-style:normal;font-variant:normal;font-weight:normal;font-stretch:normal;font-size:medium;line-height:normal;font-family:sans-serif;text-indent:0;text-align:start;text-decoration:none;text-decoration-line:none;text-decoration-style:solid;text-decoration-color:#000000;letter-spacing:normal;word-spacing:normal;text-transform:none;direction:ltr;block-progression:tb;writing-mode:lr-tb;baseline-shift:baseline;text-anchor:start;white-space:normal;clip-rule:nonzero;display:inline;overflow:visible;visibility:visible;opacity:1;isolation:auto;mix-blend-mode:normal;color-interpolation:sRGB;color-interpolation-filters:linearRGB;solid-color:#000000;solid-opacity:1;fill:#000000;fill-opacity:1;fill-rule:nonzero;stroke:none;stroke-width:1;stroke-linecap:round;stroke-linejoin:round;stroke-miterlimit:4;stroke-dasharray:none;stroke-dashoffset:0;stroke-opacity:1;color-rendering:auto;image-rendering:auto;shape-rendering:auto;text-rendering:auto;enable-background:accumulate" transform="translate(0,1020.3622)"/></g></symbol><symbol viewBox="0 0 436.125 436.125" id="progressive"><title>progressive</title> <g> <path d="M368.75,315.466H67.371l35.409-69.931h230.563L368.75,315.466z M283.315,146.732H152.802l-37.519,74.115h205.553
		L283.315,146.732z M218.063,2.71L165.31,122.037h105.51L218.063,2.71z M436.125,433.416l-54.869-93.248H54.873L0,433.416H436.125z"/> </g>                </symbol><symbol viewBox="0 0 446.297 446.297" id="ps"><title>ps</title> <g> <g> <path d="M381.903,113.195c-0.945-28.551-1.468-67.126-1.188-95.697c0.01-1.274-0.193-2.396-0.482-3.453
			c0.559-6.226-3.098-12.796-11.07-12.588C268.521,4.098,167.906,0.157,67.269,0c-8.374-0.016-12.038,7.343-11.009,13.802
			c-0.333,1.122-0.566,2.328-0.551,3.702c1.519,120.089,5.646,292.639,5.776,412.749c0,2.696,0.764,4.88,1.988,6.616
			c0.736,5.088,4.397,9.587,11.017,9.425c43.498-1.082,87.016-1.777,130.481-3.91c38.74-1.899,87.017,0.645,124.05-11.994
			c13.106-4.479,24.832-11.101,34.891-20.683c18.378-17.519,24.654-41.035,26.233-65.815c1.519-23.806-1.285-48.774-1.844-70.706
			C386.874,216.532,383.766,169.838,381.903,113.195z M318.225,327.397c-7.084,0.04-13.924,5.57-10.761,14.065
			c6.368,17.088,9.277,38.304-0.513,54.649c-11.837,19.764-32.956,19.226-53.04,21.759c-12.283,1.549-25.339,0.727-37.716,1.077
			c-9.635,0.269-131.629,3.244-131.629,3.722c-0.284-115.605-4.108-283.668-5.652-399.266c92.912,0.401,185.809,3.593,278.721,1.607
			c-0.355,94.913,8.059,232.117,8.556,307.128c-14.411-4.55-29.31-6.469-44.691-5.438
			C320.296,326.777,319.235,327.052,318.225,327.397z M327.304,406.416c9.328-15.899,11.659-35.409,6.805-56.559
			c11.237,0.437,22.317,2.604,32.813,7.053c0.041,0.127,0.076,0.264,0.117,0.396C363.637,382.366,347.784,397.742,327.304,406.416z"/> <path d="M132.843,141.249c-7.383-0.888-11.065,4.367-11.138,10.136c-0.308,1.013-0.531,2.089-0.562,3.301
			c-0.868,32.743-2.039,65.399-6.068,97.928c-1.851,14.95,21.569,14.772,23.399,0c1.618-13.04,2.689-26.105,3.547-39.187
			c1.34,0.054,2.775-0.119,4.332-0.66c18.521-6.51,34.355-19.789,30.465-41.119C173.205,151.798,150.085,143.328,132.843,141.249z
			 M143.357,188.966c0.302-7.112,0.571-14.236,0.79-21.36c4.327,1.851,8.166,4.619,9.679,8.686
			C156.143,182.52,148.91,186.669,143.357,188.966z"/> <path d="M217.112,182.426c-0.609-0.919-2.193-3.92-2.506-4.445c0.665-0.412,1.513-0.927,2.344-1.176
			c4.479-1.341,9.193-1.528,13.827-1.757c15.021-0.734,15.092-24.139,0-23.399c-14.18,0.69-33.18,2.442-38.953,17.94
			c-4.57,12.276,4.555,24.423,11.628,33.537c7.21,9.298,16.171,17.4,22.28,27.516c-6.348,1.767-17.377,0.279-23.554-0.127
			c-15.069-0.99-14.975,22.419,0,23.399c14.325,0.939,35.693,2.899,45.194-10.669c7.308-10.431,0.213-22.985-6.398-31.596
			C233.321,201.692,224.059,192.909,217.112,182.426z"/> <path d="M277.22,151.201c-10.613-1.924-16.798,9.179-13.949,16.577v77.036c0,11.166,12.802,14.045,19.464,8.683
			c23.933-7.297,41.888-25.913,42.396-52.014C325.654,174.263,301.833,155.667,277.22,151.201z M286.675,226.406v-47.428
			c8.317,4.463,14.452,11.585,15.062,22.5C302.372,212.835,295.572,221.123,286.675,226.406z"/> </g> </g>                </symbol></svg>
